<svg width="253" height="65" viewBox="0 0 253 65" fill="none" xmlns="http://www.w3.org/2000/svg">
<path d="M6.18531 15.9122C7.04458 11.3724 10.9525 8.09131 15.5003 8.09131H37.7384L31.5531 40.7702C30.6938 45.31 26.7859 48.5911 22.2381 48.5911H0L6.18531 15.9122Z" fill="#EC9F8F"/>
<path d="M11.8578 24.0184C12.738 19.5818 16.7413 16.3752 21.4 16.3752H44.1805L37.8443 48.3114C36.9641 52.748 32.9608 55.9545 28.3021 55.9545H5.52161L11.8578 24.0184Z" fill="#E70000"/>
<path d="M76.086 15.8626V21.806C76.8672 19.6406 78.2 18.005 80.0842 16.8992C81.9685 15.7474 84.1285 15.1715 86.5642 15.1715V25.1232C83.8527 24.7546 81.417 25.3075 79.257 26.7818C77.143 28.21 76.086 30.5828 76.086 33.9V50.417H67.1933V15.8626H76.086Z" fill="#0464FF"/>
<path d="M76.086 15.8626V21.806C76.8672 19.6406 78.2 18.005 80.0842 16.8992C81.9685 15.7474 84.1285 15.1715 86.5642 15.1715V25.1232C83.8527 24.7546 81.417 25.3075 79.257 26.7818C77.143 28.21 76.086 30.5828 76.086 33.9V50.417H67.1933V15.8626H76.086Z" fill="#026ED1"/>
<path d="M76.086 15.8626V21.806C76.8672 19.6406 78.2 18.005 80.0842 16.8992C81.9685 15.7474 84.1285 15.1715 86.5642 15.1715V25.1232C83.8527 24.7546 81.417 25.3075 79.257 26.7818C77.143 28.21 76.086 30.5828 76.086 33.9V50.417H67.1933V15.8626H76.086Z" fill="white"/>
<path d="M116.682 19.94V15.8626H125.574V50.417H116.682V46.3396C114.016 49.7029 110.271 51.3845 105.445 51.3845C100.849 51.3845 96.897 49.6338 93.5881 46.1322C90.3252 42.5847 88.6937 38.2538 88.6937 33.1398C88.6937 28.0718 90.3252 23.764 93.5881 20.2165C96.897 16.6689 100.849 14.8951 105.445 14.8951C110.271 14.8951 114.016 16.5767 116.682 19.94ZM100.275 40.1889C102.067 41.9857 104.342 42.8841 107.1 42.8841C109.857 42.8841 112.132 41.9857 113.924 40.1889C115.762 38.346 116.682 35.9963 116.682 33.1398C116.682 30.2833 115.762 27.9566 113.924 26.1598C112.132 24.3169 109.857 23.3955 107.1 23.3955C104.342 23.3955 102.067 24.3169 100.275 26.1598C98.4826 27.9566 97.5864 30.2833 97.5864 33.1398C97.5864 35.9963 98.4826 38.346 100.275 40.1889Z" fill="#0464FF"/>
<path d="M116.682 19.94V15.8626H125.574V50.417H116.682V46.3396C114.016 49.7029 110.271 51.3845 105.445 51.3845C100.849 51.3845 96.897 49.6338 93.5881 46.1322C90.3252 42.5847 88.6937 38.2538 88.6937 33.1398C88.6937 28.0718 90.3252 23.764 93.5881 20.2165C96.897 16.6689 100.849 14.8951 105.445 14.8951C110.271 14.8951 114.016 16.5767 116.682 19.94ZM100.275 40.1889C102.067 41.9857 104.342 42.8841 107.1 42.8841C109.857 42.8841 112.132 41.9857 113.924 40.1889C115.762 38.346 116.682 35.9963 116.682 33.1398C116.682 30.2833 115.762 27.9566 113.924 26.1598C112.132 24.3169 109.857 23.3955 107.1 23.3955C104.342 23.3955 102.067 24.3169 100.275 26.1598C98.4826 27.9566 97.5864 30.2833 97.5864 33.1398C97.5864 35.9963 98.4826 38.346 100.275 40.1889Z" fill="#026ED1"/>
<path d="M116.682 19.94V15.8626H125.574V50.417H116.682V46.3396C114.016 49.7029 110.271 51.3845 105.445 51.3845C100.849 51.3845 96.897 49.6338 93.5881 46.1322C90.3252 42.5847 88.6937 38.2538 88.6937 33.1398C88.6937 28.0718 90.3252 23.764 93.5881 20.2165C96.897 16.6689 100.849 14.8951 105.445 14.8951C110.271 14.8951 114.016 16.5767 116.682 19.94ZM100.275 40.1889C102.067 41.9857 104.342 42.8841 107.1 42.8841C109.857 42.8841 112.132 41.9857 113.924 40.1889C115.762 38.346 116.682 35.9963 116.682 33.1398C116.682 30.2833 115.762 27.9566 113.924 26.1598C112.132 24.3169 109.857 23.3955 107.1 23.3955C104.342 23.3955 102.067 24.3169 100.275 26.1598C98.4826 27.9566 97.5864 30.2833 97.5864 33.1398C97.5864 35.9963 98.4826 38.346 100.275 40.1889Z" fill="white"/>
<path d="M153.699 14.8951C158.34 14.8951 162.293 16.6689 165.555 20.2165C168.864 23.764 170.519 28.0718 170.519 33.1398C170.519 38.2999 168.864 42.6307 165.555 46.1322C162.338 49.6338 158.386 51.3845 153.699 51.3845C148.873 51.3845 145.15 49.7029 142.531 46.3396V64.2387H133.638V15.8626H142.531V19.94C145.15 16.5767 148.873 14.8951 153.699 14.8951ZM145.219 40.1889C147.012 41.9857 149.287 42.8841 152.044 42.8841C154.801 42.8841 157.076 41.9857 158.869 40.1889C160.707 38.346 161.626 35.9963 161.626 33.1398C161.626 30.2833 160.707 27.9566 158.869 26.1598C157.076 24.3169 154.801 23.3955 152.044 23.3955C149.287 23.3955 147.012 24.3169 145.219 26.1598C143.427 27.9566 142.531 30.2833 142.531 33.1398C142.531 35.9963 143.427 38.346 145.219 40.1889Z" fill="#0464FF"/>
<path d="M153.699 14.8951C158.34 14.8951 162.293 16.6689 165.555 20.2165C168.864 23.764 170.519 28.0718 170.519 33.1398C170.519 38.2999 168.864 42.6307 165.555 46.1322C162.338 49.6338 158.386 51.3845 153.699 51.3845C148.873 51.3845 145.15 49.7029 142.531 46.3396V64.2387H133.638V15.8626H142.531V19.94C145.15 16.5767 148.873 14.8951 153.699 14.8951ZM145.219 40.1889C147.012 41.9857 149.287 42.8841 152.044 42.8841C154.801 42.8841 157.076 41.9857 158.869 40.1889C160.707 38.346 161.626 35.9963 161.626 33.1398C161.626 30.2833 160.707 27.9566 158.869 26.1598C157.076 24.3169 154.801 23.3955 152.044 23.3955C149.287 23.3955 147.012 24.3169 145.219 26.1598C143.427 27.9566 142.531 30.2833 142.531 33.1398C142.531 35.9963 143.427 38.346 145.219 40.1889Z" fill="#026ED1"/>
<path d="M153.699 14.8951C158.34 14.8951 162.293 16.6689 165.555 20.2165C168.864 23.764 170.519 28.0718 170.519 33.1398C170.519 38.2999 168.864 42.6307 165.555 46.1322C162.338 49.6338 158.386 51.3845 153.699 51.3845C148.873 51.3845 145.15 49.7029 142.531 46.3396V64.2387H133.638V15.8626H142.531V19.94C145.15 16.5767 148.873 14.8951 153.699 14.8951ZM145.219 40.1889C147.012 41.9857 149.287 42.8841 152.044 42.8841C154.801 42.8841 157.076 41.9857 158.869 40.1889C160.707 38.346 161.626 35.9963 161.626 33.1398C161.626 30.2833 160.707 27.9566 158.869 26.1598C157.076 24.3169 154.801 23.3955 152.044 23.3955C149.287 23.3955 147.012 24.3169 145.219 26.1598C143.427 27.9566 142.531 30.2833 142.531 33.1398C142.531 35.9963 143.427 38.346 145.219 40.1889Z" fill="white"/>
<path d="M181.202 11.7161C179.732 11.7161 178.445 11.1862 177.342 10.1266C176.285 9.02084 175.756 7.73081 175.756 6.25648C175.756 4.78217 176.285 3.49214 177.342 2.38639C178.445 1.28065 179.732 0.727783 181.202 0.727783C182.719 0.727783 184.006 1.28065 185.063 2.38639C186.166 3.49214 186.717 4.78217 186.717 6.25648C186.717 7.73081 186.166 9.02084 185.063 10.1266C184.006 11.1862 182.719 11.7161 181.202 11.7161ZM185.683 50.417H176.79V15.8626H185.683V50.417Z" fill="#0464FF"/>
<path d="M181.202 11.7161C179.732 11.7161 178.445 11.1862 177.342 10.1266C176.285 9.02084 175.756 7.73081 175.756 6.25648C175.756 4.78217 176.285 3.49214 177.342 2.38639C178.445 1.28065 179.732 0.727783 181.202 0.727783C182.719 0.727783 184.006 1.28065 185.063 2.38639C186.166 3.49214 186.717 4.78217 186.717 6.25648C186.717 7.73081 186.166 9.02084 185.063 10.1266C184.006 11.1862 182.719 11.7161 181.202 11.7161ZM185.683 50.417H176.79V15.8626H185.683V50.417Z" fill="#026ED1"/>
<path d="M181.202 11.7161C179.732 11.7161 178.445 11.1862 177.342 10.1266C176.285 9.02084 175.756 7.73081 175.756 6.25648C175.756 4.78217 176.285 3.49214 177.342 2.38639C178.445 1.28065 179.732 0.727783 181.202 0.727783C182.719 0.727783 184.006 1.28065 185.063 2.38639C186.166 3.49214 186.717 4.78217 186.717 6.25648C186.717 7.73081 186.166 9.02084 185.063 10.1266C184.006 11.1862 182.719 11.7161 181.202 11.7161ZM185.683 50.417H176.79V15.8626H185.683V50.417Z" fill="white"/>
<path d="M202.715 15.8626V21.806C203.496 19.6406 204.829 18.005 206.713 16.8992C208.598 15.7474 210.758 15.1715 213.193 15.1715V25.1232C210.482 24.7546 208.046 25.3075 205.886 26.7818C203.772 28.21 202.715 30.5828 202.715 33.9V50.417H193.822V15.8626H202.715Z" fill="#0464FF"/>
<path d="M202.715 15.8626V21.806C203.496 19.6406 204.829 18.005 206.713 16.8992C208.598 15.7474 210.758 15.1715 213.193 15.1715V25.1232C210.482 24.7546 208.046 25.3075 205.886 26.7818C203.772 28.21 202.715 30.5828 202.715 33.9V50.417H193.822V15.8626H202.715Z" fill="#026ED1"/>
<path d="M202.715 15.8626V21.806C203.496 19.6406 204.829 18.005 206.713 16.8992C208.598 15.7474 210.758 15.1715 213.193 15.1715V25.1232C210.482 24.7546 208.046 25.3075 205.886 26.7818C203.772 28.21 202.715 30.5828 202.715 33.9V50.417H193.822V15.8626H202.715Z" fill="white"/>
<path d="M243.311 19.94V15.8626H252.203V50.417H243.311V46.3396C240.645 49.7029 236.9 51.3845 232.074 51.3845C227.478 51.3845 223.526 49.6338 220.217 46.1322C216.954 42.5847 215.323 38.2538 215.323 33.1398C215.323 28.0718 216.954 23.764 220.217 20.2165C223.526 16.6689 227.478 14.8951 232.074 14.8951C236.9 14.8951 240.645 16.5767 243.311 19.94ZM226.904 40.1889C228.696 41.9857 230.971 42.8841 233.729 42.8841C236.486 42.8841 238.761 41.9857 240.553 40.1889C242.392 38.346 243.311 35.9963 243.311 33.1398C243.311 30.2833 242.392 27.9566 240.553 26.1598C238.761 24.3169 236.486 23.3955 233.729 23.3955C230.971 23.3955 228.696 24.3169 226.904 26.1598C225.112 27.9566 224.216 30.2833 224.216 33.1398C224.216 35.9963 225.112 38.346 226.904 40.1889Z" fill="#0464FF"/>
<path d="M243.311 19.94V15.8626H252.203V50.417H243.311V46.3396C240.645 49.7029 236.9 51.3845 232.074 51.3845C227.478 51.3845 223.526 49.6338 220.217 46.1322C216.954 42.5847 215.323 38.2538 215.323 33.1398C215.323 28.0718 216.954 23.764 220.217 20.2165C223.526 16.6689 227.478 14.8951 232.074 14.8951C236.9 14.8951 240.645 16.5767 243.311 19.94ZM226.904 40.1889C228.696 41.9857 230.971 42.8841 233.729 42.8841C236.486 42.8841 238.761 41.9857 240.553 40.1889C242.392 38.346 243.311 35.9963 243.311 33.1398C243.311 30.2833 242.392 27.9566 240.553 26.1598C238.761 24.3169 236.486 23.3955 233.729 23.3955C230.971 23.3955 228.696 24.3169 226.904 26.1598C225.112 27.9566 224.216 30.2833 224.216 33.1398C224.216 35.9963 225.112 38.346 226.904 40.1889Z" fill="#026ED1"/>
<path d="M243.311 19.94V15.8626H252.203V50.417H243.311V46.3396C240.645 49.7029 236.9 51.3845 232.074 51.3845C227.478 51.3845 223.526 49.6338 220.217 46.1322C216.954 42.5847 215.323 38.2538 215.323 33.1398C215.323 28.0718 216.954 23.764 220.217 20.2165C223.526 16.6689 227.478 14.8951 232.074 14.8951C236.9 14.8951 240.645 16.5767 243.311 19.94ZM226.904 40.1889C228.696 41.9857 230.971 42.8841 233.729 42.8841C236.486 42.8841 238.761 41.9857 240.553 40.1889C242.392 38.346 243.311 35.9963 243.311 33.1398C243.311 30.2833 242.392 27.9566 240.553 26.1598C238.761 24.3169 236.486 23.3955 233.729 23.3955C230.971 23.3955 228.696 24.3169 226.904 26.1598C225.112 27.9566 224.216 30.2833 224.216 33.1398C224.216 35.9963 225.112 38.346 226.904 40.1889Z" fill="white"/>
</svg>
