<svg width="42" height="42" viewBox="0 0 42 42" fill="none" xmlns="http://www.w3.org/2000/svg">
<path fill-rule="evenodd" clip-rule="evenodd" d="M19.8625 0.0205409C14.4812 0.341555 9.55185 2.60429 5.85233 6.4517C3.53165 8.86514 1.82897 11.7889 0.870351 15.0067C-0.531561 19.7123 -0.23182 24.8092 1.7112 29.3053C2.78349 31.7865 4.21709 33.8963 6.13766 35.8197C7.89732 37.5819 9.66646 38.8435 11.8643 39.9035C16.8122 42.2898 22.4502 42.6531 27.6495 40.9209C29.4922 40.3069 31.452 39.3213 33.0254 38.2171C37.6524 34.9699 40.754 30.0698 41.7032 24.5072C42.2845 21.1002 42.009 17.5857 40.9022 14.2897C40.3466 12.6353 39.4167 10.7448 38.4469 9.29801C37.6858 8.16252 36.9057 7.2223 35.84 6.15589C34.103 4.4177 32.4541 3.23598 30.2561 2.15397C27.903 0.995652 25.5494 0.330718 22.9288 0.0839227C22.1124 0.0070353 20.6097 -0.0240399 19.8625 0.0205409ZM30.646 12.6231V15.004H27.0953H23.5445V16.5434C23.5445 17.9878 23.549 18.0828 23.6171 18.0828C23.792 18.0828 25.0602 18.1727 25.6791 18.229C30.6091 18.6774 33.7907 19.7684 33.6315 20.956C33.5962 21.2189 33.4186 21.4741 33.1162 21.6961C32.0198 22.5013 29.5931 23.1262 26.1922 23.4792C25.5431 23.5465 23.9597 23.6647 23.6985 23.6653L23.5445 23.6657V28.6533V33.6409H20.9584H18.3723V28.6593V23.6776L17.849 23.6493C16.0138 23.5499 14.0416 23.3165 12.5905 23.0269C11.1266 22.7348 10.1977 22.4545 9.3913 22.0617C8.97585 21.8592 8.83739 21.7672 8.60579 21.5397C8.21877 21.1596 8.15609 20.9386 8.32977 20.5663C8.88566 19.3751 12.5968 18.4224 17.9311 18.1014L18.3723 18.0749V16.5395V15.004H14.8216H11.2708V12.6231V10.2422H20.9584H30.646V12.6231ZM17.223 18.5382C12.8545 18.845 9.82376 19.6103 9.52898 20.4811C9.45152 20.7099 9.50698 20.8601 9.7541 21.0902C10.6105 21.8878 13.5359 22.5002 17.7771 22.7697C18.8794 22.8398 23.0111 22.8411 24.0987 22.7718C28.1502 22.5135 30.9679 21.9511 32.0355 21.1874C32.2816 21.0114 32.4285 20.7539 32.3925 20.5618C32.2592 19.8515 30.2984 19.1807 27.1979 18.7847C26.1804 18.6548 24.2897 18.4947 23.76 18.4937L23.5445 18.4933V20.2145V21.9356L23.3085 21.9694C23.0013 22.0133 19.0103 22.0128 18.6494 21.9688L18.3723 21.935V20.2141V18.4933L18.0337 18.4992C17.8474 18.5024 17.4826 18.5199 17.223 18.5382Z" fill="#00B275"/>
</svg>
