<svg width="15" height="13" viewBox="0 0 15 13" fill="none" xmlns="http://www.w3.org/2000/svg">
<path fill-rule="evenodd" clip-rule="evenodd" d="M0.667969 6.59375C0.667969 6.37238 0.758127 6.16008 0.918609 6.00355C1.07909 5.84702 1.29675 5.75908 1.52371 5.75908H11.4383L7.76375 2.17667C7.60306 2.01994 7.51279 1.80737 7.51279 1.58573C7.51279 1.36408 7.60306 1.15151 7.76375 0.994778C7.92443 0.83805 8.14237 0.75 8.36961 0.75C8.59685 0.75 8.81479 0.83805 8.97547 0.994778L14.1099 6.0028C14.1896 6.08034 14.2528 6.17244 14.296 6.27385C14.3391 6.37525 14.3613 6.48396 14.3613 6.59375C14.3613 6.70354 14.3391 6.81225 14.296 6.91365C14.2528 7.01506 14.1896 7.10716 14.1099 7.1847L8.97547 12.1927C8.81479 12.3495 8.59685 12.4375 8.36961 12.4375C8.14237 12.4375 7.92443 12.3495 7.76375 12.1927C7.60306 12.036 7.51279 11.8234 7.51279 11.6018C7.51279 11.3801 7.60306 11.1676 7.76375 11.0108L11.4383 7.42842H1.52371C1.29675 7.42842 1.07909 7.34048 0.918609 7.18395C0.758127 7.02742 0.667969 6.81512 0.667969 6.59375Z" fill="white"/>
</svg>
