<svg width="721" height="1085" viewBox="0 0 721 1085" fill="none" xmlns="http://www.w3.org/2000/svg">
<g opacity="0.75">
<g style="mix-blend-mode:multiply" opacity="0.62" filter="url(#filter0_f_1_93)">
<path d="M13.3171 630.714C-8.41891 731.09 -126.614 855.79 -226.99 834.054C-327.365 812.318 -371.912 652.377 -350.176 552.001C-328.44 451.625 -229.449 387.875 -129.073 409.611C-28.697 431.347 35.0531 530.338 13.3171 630.714Z" fill="url(#paint0_radial_1_93)"/>
</g>
<g style="mix-blend-mode:multiply" opacity="0.62" filter="url(#filter1_f_1_93)">
<path d="M446.118 459.006C493.389 570.462 478.975 764.66 384.456 804.749C289.937 844.837 151.105 715.635 103.833 604.179C56.5616 492.724 94.8635 369.873 189.383 329.785C283.902 289.696 398.846 347.551 446.118 459.006Z" fill="url(#paint1_radial_1_93)"/>
</g>
<g style="mix-blend-mode:multiply" filter="url(#filter2_f_1_93)">
<path d="M320.517 338.243C354.539 418.458 321.174 567.976 226.655 608.064C132.135 648.153 12.2539 563.632 -21.7678 483.416C-55.7896 403.201 -6.74658 305.675 87.7727 265.587C182.292 225.498 286.495 258.028 320.517 338.243Z" fill="url(#paint2_radial_1_93)"/>
</g>
<g style="mix-blend-mode:multiply" opacity="0.62" filter="url(#filter3_f_1_93)">
<path d="M267.316 476.46C245.58 576.835 127.385 701.536 27.0094 679.8C-73.3665 658.064 -117.913 498.122 -96.1769 397.747C-74.4408 297.371 24.5504 233.621 124.926 255.357C225.302 277.093 289.052 376.084 267.316 476.46Z" fill="url(#paint3_radial_1_93)"/>
</g>
</g>
<defs>
<filter id="filter0_f_1_93" x="-603.569" y="157.36" width="869.137" height="927.189" filterUnits="userSpaceOnUse" color-interpolation-filters="sRGB">
<feFlood flood-opacity="0" result="BackgroundImageFix"/>
<feBlend mode="normal" in="SourceGraphic" in2="BackgroundImageFix" result="shape"/>
<feGaussianBlur stdDeviation="124" result="effect1_foregroundBlur_1_93"/>
</filter>
<filter id="filter1_f_1_93" x="-164.419" y="69.0691" width="884.75" height="991.145" filterUnits="userSpaceOnUse" color-interpolation-filters="sRGB">
<feFlood flood-opacity="0" result="BackgroundImageFix"/>
<feBlend mode="normal" in="SourceGraphic" in2="BackgroundImageFix" result="shape"/>
<feGaussianBlur stdDeviation="124" result="effect1_foregroundBlur_1_93"/>
</filter>
<filter id="filter2_f_1_93" x="-280.566" y="0.423096" width="862.068" height="865.931" filterUnits="userSpaceOnUse" color-interpolation-filters="sRGB">
<feFlood flood-opacity="0" result="BackgroundImageFix"/>
<feBlend mode="normal" in="SourceGraphic" in2="BackgroundImageFix" result="shape"/>
<feGaussianBlur stdDeviation="124" result="effect1_foregroundBlur_1_93"/>
</filter>
<filter id="filter3_f_1_93" x="-349.57" y="3.10522" width="869.137" height="927.189" filterUnits="userSpaceOnUse" color-interpolation-filters="sRGB">
<feFlood flood-opacity="0" result="BackgroundImageFix"/>
<feBlend mode="normal" in="SourceGraphic" in2="BackgroundImageFix" result="shape"/>
<feGaussianBlur stdDeviation="124" result="effect1_foregroundBlur_1_93"/>
</filter>
<radialGradient id="paint0_radial_1_93" cx="0" cy="0" r="1" gradientUnits="userSpaceOnUse" gradientTransform="translate(-81.3438 498.366) rotate(106.978) scale(323.919 276.595)">
<stop offset="0.130208" stop-color="#FF9900"/>
<stop offset="0.625" stop-color="#FFAD7E"/>
</radialGradient>
<radialGradient id="paint1_radial_1_93" cx="0" cy="0" r="1" gradientUnits="userSpaceOnUse" gradientTransform="translate(284.878 387.419) rotate(71.0553) scale(381.468 276.774)">
<stop offset="0.197917" stop-color="#15306F"/>
<stop offset="0.625" stop-color="#42D6F5"/>
</radialGradient>
<radialGradient id="paint2_radial_1_93" cx="0" cy="0" r="1" gradientUnits="userSpaceOnUse" gradientTransform="translate(173.381 299.908) rotate(72.6195) scale(275.179 276.137)">
<stop stop-color="#F54242"/>
<stop offset="0.0520833" stop-color="#BD1C1C" stop-opacity="0.74"/>
<stop offset="0.130208" stop-color="#44BEF3" stop-opacity="0.997636"/>
</radialGradient>
<radialGradient id="paint3_radial_1_93" cx="0" cy="0" r="1" gradientUnits="userSpaceOnUse" gradientTransform="translate(127.33 371.239) rotate(106.978) scale(323.919 276.595)">
<stop offset="0.130208" stop-color="#BC0075"/>
<stop offset="0.625" stop-color="#E60033"/>
</radialGradient>
</defs>
</svg>
