<svg width="129" height="45" viewBox="0 0 129 45" fill="none" xmlns="http://www.w3.org/2000/svg">
<path d="M3.26028 14.0553C3.7132 11.7013 5.77306 10 8.17022 10H19.8919L16.6316 26.9447C16.1787 29.2987 14.1188 31 11.7217 31H0L3.26028 14.0553Z" fill="#EC9F8F"/>
<path d="M6.26028 18.0553C6.7132 15.7013 8.77306 14 11.1702 14H22.8919L19.6316 30.9447C19.1787 33.2987 17.1188 35 14.7217 35H3L6.26028 18.0553Z" fill="#E70000"/>
<path d="M34.768 14V17.096C35.176 15.968 35.872 15.116 36.856 14.54C37.84 13.94 38.968 13.64 40.24 13.64V18.824C38.824 18.632 37.552 18.92 36.424 19.688C35.32 20.432 34.768 21.668 34.768 23.396V32H30.124V14H34.768ZM55.9681 16.124V14H60.6121V32H55.9681V29.876C54.5761 31.628 52.6201 32.504 50.1001 32.504C47.7001 32.504 45.6361 31.592 43.9081 29.768C42.2041 27.92 41.3521 25.664 41.3521 23C41.3521 20.36 42.2041 18.116 43.9081 16.268C45.6361 14.42 47.7001 13.496 50.1001 13.496C52.6201 13.496 54.5761 14.372 55.9681 16.124ZM47.4001 26.672C48.3361 27.608 49.5241 28.076 50.9641 28.076C52.4041 28.076 53.5921 27.608 54.5281 26.672C55.4881 25.712 55.9681 24.488 55.9681 23C55.9681 21.512 55.4881 20.3 54.5281 19.364C53.5921 18.404 52.4041 17.924 50.9641 17.924C49.5241 17.924 48.3361 18.404 47.4001 19.364C46.4641 20.3 45.9961 21.512 45.9961 23C45.9961 24.488 46.4641 25.712 47.4001 26.672ZM75.2992 13.496C77.7232 13.496 79.7872 14.42 81.4912 16.268C83.2192 18.116 84.0832 20.36 84.0832 23C84.0832 25.688 83.2192 27.944 81.4912 29.768C79.8112 31.592 77.7472 32.504 75.2992 32.504C72.7792 32.504 70.8352 31.628 69.4672 29.876V39.2H64.8232V14H69.4672V16.124C70.8352 14.372 72.7792 13.496 75.2992 13.496ZM70.8712 26.672C71.8072 27.608 72.9952 28.076 74.4352 28.076C75.8752 28.076 77.0632 27.608 77.9992 26.672C78.9592 25.712 79.4392 24.488 79.4392 23C79.4392 21.512 78.9592 20.3 77.9992 19.364C77.0632 18.404 75.8752 17.924 74.4352 17.924C72.9952 17.924 71.8072 18.404 70.8712 19.364C69.9352 20.3 69.4672 21.512 69.4672 23C69.4672 24.488 69.9352 25.712 70.8712 26.672ZM89.6624 11.84C88.8944 11.84 88.2224 11.564 87.6464 11.012C87.0944 10.436 86.8184 9.764 86.8184 8.996C86.8184 8.228 87.0944 7.556 87.6464 6.98C88.2224 6.404 88.8944 6.116 89.6624 6.116C90.4544 6.116 91.1264 6.404 91.6784 6.98C92.2544 7.556 92.5424 8.228 92.5424 8.996C92.5424 9.764 92.2544 10.436 91.6784 11.012C91.1264 11.564 90.4544 11.84 89.6624 11.84ZM92.0024 32H87.3584V14H92.0024V32ZM100.897 14V17.096C101.305 15.968 102.001 15.116 102.985 14.54C103.969 13.94 105.097 13.64 106.369 13.64V18.824C104.953 18.632 103.681 18.92 102.553 19.688C101.449 20.432 100.897 21.668 100.897 23.396V32H96.2529V14H100.897ZM122.097 16.124V14H126.741V32H122.097V29.876C120.705 31.628 118.749 32.504 116.229 32.504C113.829 32.504 111.765 31.592 110.037 29.768C108.333 27.92 107.481 25.664 107.481 23C107.481 20.36 108.333 18.116 110.037 16.268C111.765 14.42 113.829 13.496 116.229 13.496C118.749 13.496 120.705 14.372 122.097 16.124ZM113.529 26.672C114.465 27.608 115.653 28.076 117.093 28.076C118.533 28.076 119.721 27.608 120.657 26.672C121.617 25.712 122.097 24.488 122.097 23C122.097 21.512 121.617 20.3 120.657 19.364C119.721 18.404 118.533 17.924 117.093 17.924C115.653 17.924 114.465 18.404 113.529 19.364C112.593 20.3 112.125 21.512 112.125 23C112.125 24.488 112.593 25.712 113.529 26.672Z" fill="#0464FF"/>
<path d="M34.768 14V17.096C35.176 15.968 35.872 15.116 36.856 14.54C37.84 13.94 38.968 13.64 40.24 13.64V18.824C38.824 18.632 37.552 18.92 36.424 19.688C35.32 20.432 34.768 21.668 34.768 23.396V32H30.124V14H34.768ZM55.9681 16.124V14H60.6121V32H55.9681V29.876C54.5761 31.628 52.6201 32.504 50.1001 32.504C47.7001 32.504 45.6361 31.592 43.9081 29.768C42.2041 27.92 41.3521 25.664 41.3521 23C41.3521 20.36 42.2041 18.116 43.9081 16.268C45.6361 14.42 47.7001 13.496 50.1001 13.496C52.6201 13.496 54.5761 14.372 55.9681 16.124ZM47.4001 26.672C48.3361 27.608 49.5241 28.076 50.9641 28.076C52.4041 28.076 53.5921 27.608 54.5281 26.672C55.4881 25.712 55.9681 24.488 55.9681 23C55.9681 21.512 55.4881 20.3 54.5281 19.364C53.5921 18.404 52.4041 17.924 50.9641 17.924C49.5241 17.924 48.3361 18.404 47.4001 19.364C46.4641 20.3 45.9961 21.512 45.9961 23C45.9961 24.488 46.4641 25.712 47.4001 26.672ZM75.2992 13.496C77.7232 13.496 79.7872 14.42 81.4912 16.268C83.2192 18.116 84.0832 20.36 84.0832 23C84.0832 25.688 83.2192 27.944 81.4912 29.768C79.8112 31.592 77.7472 32.504 75.2992 32.504C72.7792 32.504 70.8352 31.628 69.4672 29.876V39.2H64.8232V14H69.4672V16.124C70.8352 14.372 72.7792 13.496 75.2992 13.496ZM70.8712 26.672C71.8072 27.608 72.9952 28.076 74.4352 28.076C75.8752 28.076 77.0632 27.608 77.9992 26.672C78.9592 25.712 79.4392 24.488 79.4392 23C79.4392 21.512 78.9592 20.3 77.9992 19.364C77.0632 18.404 75.8752 17.924 74.4352 17.924C72.9952 17.924 71.8072 18.404 70.8712 19.364C69.9352 20.3 69.4672 21.512 69.4672 23C69.4672 24.488 69.9352 25.712 70.8712 26.672ZM89.6624 11.84C88.8944 11.84 88.2224 11.564 87.6464 11.012C87.0944 10.436 86.8184 9.764 86.8184 8.996C86.8184 8.228 87.0944 7.556 87.6464 6.98C88.2224 6.404 88.8944 6.116 89.6624 6.116C90.4544 6.116 91.1264 6.404 91.6784 6.98C92.2544 7.556 92.5424 8.228 92.5424 8.996C92.5424 9.764 92.2544 10.436 91.6784 11.012C91.1264 11.564 90.4544 11.84 89.6624 11.84ZM92.0024 32H87.3584V14H92.0024V32ZM100.897 14V17.096C101.305 15.968 102.001 15.116 102.985 14.54C103.969 13.94 105.097 13.64 106.369 13.64V18.824C104.953 18.632 103.681 18.92 102.553 19.688C101.449 20.432 100.897 21.668 100.897 23.396V32H96.2529V14H100.897ZM122.097 16.124V14H126.741V32H122.097V29.876C120.705 31.628 118.749 32.504 116.229 32.504C113.829 32.504 111.765 31.592 110.037 29.768C108.333 27.92 107.481 25.664 107.481 23C107.481 20.36 108.333 18.116 110.037 16.268C111.765 14.42 113.829 13.496 116.229 13.496C118.749 13.496 120.705 14.372 122.097 16.124ZM113.529 26.672C114.465 27.608 115.653 28.076 117.093 28.076C118.533 28.076 119.721 27.608 120.657 26.672C121.617 25.712 122.097 24.488 122.097 23C122.097 21.512 121.617 20.3 120.657 19.364C119.721 18.404 118.533 17.924 117.093 17.924C115.653 17.924 114.465 18.404 113.529 19.364C112.593 20.3 112.125 21.512 112.125 23C112.125 24.488 112.593 25.712 113.529 26.672Z" fill="#026ED1"/>
<path d="M34.768 14V17.096C35.176 15.968 35.872 15.116 36.856 14.54C37.84 13.94 38.968 13.64 40.24 13.64V18.824C38.824 18.632 37.552 18.92 36.424 19.688C35.32 20.432 34.768 21.668 34.768 23.396V32H30.124V14H34.768ZM55.9681 16.124V14H60.6121V32H55.9681V29.876C54.5761 31.628 52.6201 32.504 50.1001 32.504C47.7001 32.504 45.6361 31.592 43.9081 29.768C42.2041 27.92 41.3521 25.664 41.3521 23C41.3521 20.36 42.2041 18.116 43.9081 16.268C45.6361 14.42 47.7001 13.496 50.1001 13.496C52.6201 13.496 54.5761 14.372 55.9681 16.124ZM47.4001 26.672C48.3361 27.608 49.5241 28.076 50.9641 28.076C52.4041 28.076 53.5921 27.608 54.5281 26.672C55.4881 25.712 55.9681 24.488 55.9681 23C55.9681 21.512 55.4881 20.3 54.5281 19.364C53.5921 18.404 52.4041 17.924 50.9641 17.924C49.5241 17.924 48.3361 18.404 47.4001 19.364C46.4641 20.3 45.9961 21.512 45.9961 23C45.9961 24.488 46.4641 25.712 47.4001 26.672ZM75.2992 13.496C77.7232 13.496 79.7872 14.42 81.4912 16.268C83.2192 18.116 84.0832 20.36 84.0832 23C84.0832 25.688 83.2192 27.944 81.4912 29.768C79.8112 31.592 77.7472 32.504 75.2992 32.504C72.7792 32.504 70.8352 31.628 69.4672 29.876V39.2H64.8232V14H69.4672V16.124C70.8352 14.372 72.7792 13.496 75.2992 13.496ZM70.8712 26.672C71.8072 27.608 72.9952 28.076 74.4352 28.076C75.8752 28.076 77.0632 27.608 77.9992 26.672C78.9592 25.712 79.4392 24.488 79.4392 23C79.4392 21.512 78.9592 20.3 77.9992 19.364C77.0632 18.404 75.8752 17.924 74.4352 17.924C72.9952 17.924 71.8072 18.404 70.8712 19.364C69.9352 20.3 69.4672 21.512 69.4672 23C69.4672 24.488 69.9352 25.712 70.8712 26.672ZM89.6624 11.84C88.8944 11.84 88.2224 11.564 87.6464 11.012C87.0944 10.436 86.8184 9.764 86.8184 8.996C86.8184 8.228 87.0944 7.556 87.6464 6.98C88.2224 6.404 88.8944 6.116 89.6624 6.116C90.4544 6.116 91.1264 6.404 91.6784 6.98C92.2544 7.556 92.5424 8.228 92.5424 8.996C92.5424 9.764 92.2544 10.436 91.6784 11.012C91.1264 11.564 90.4544 11.84 89.6624 11.84ZM92.0024 32H87.3584V14H92.0024V32ZM100.897 14V17.096C101.305 15.968 102.001 15.116 102.985 14.54C103.969 13.94 105.097 13.64 106.369 13.64V18.824C104.953 18.632 103.681 18.92 102.553 19.688C101.449 20.432 100.897 21.668 100.897 23.396V32H96.2529V14H100.897ZM122.097 16.124V14H126.741V32H122.097V29.876C120.705 31.628 118.749 32.504 116.229 32.504C113.829 32.504 111.765 31.592 110.037 29.768C108.333 27.92 107.481 25.664 107.481 23C107.481 20.36 108.333 18.116 110.037 16.268C111.765 14.42 113.829 13.496 116.229 13.496C118.749 13.496 120.705 14.372 122.097 16.124ZM113.529 26.672C114.465 27.608 115.653 28.076 117.093 28.076C118.533 28.076 119.721 27.608 120.657 26.672C121.617 25.712 122.097 24.488 122.097 23C122.097 21.512 121.617 20.3 120.657 19.364C119.721 18.404 118.533 17.924 117.093 17.924C115.653 17.924 114.465 18.404 113.529 19.364C112.593 20.3 112.125 21.512 112.125 23C112.125 24.488 112.593 25.712 113.529 26.672Z" fill="black"/>
</svg>
