<svg width="134" height="45" viewBox="0 0 134 45" fill="none" xmlns="http://www.w3.org/2000/svg">
<path d="M3.26028 14.0553C3.7132 11.7013 5.77306 10 8.17022 10H19.8919L16.6316 26.9447C16.1787 29.2987 14.1188 31 11.7217 31H0L3.26028 14.0553Z" fill="#EC9F8F"/>
<path d="M6.26028 18.0553C6.7132 15.7013 8.77306 14 11.1702 14H22.8919L19.6316 30.9447C19.1787 33.2987 17.1188 35 14.7217 35H3L6.26028 18.0553Z" fill="#E70000"/>
<path d="M39.768 14V17.096C40.176 15.968 40.872 15.116 41.856 14.54C42.84 13.94 43.968 13.64 45.24 13.64V18.824C43.824 18.632 42.552 18.92 41.424 19.688C40.32 20.432 39.768 21.668 39.768 23.396V32H35.124V14H39.768ZM60.9681 16.124V14H65.6121V32H60.9681V29.876C59.5761 31.628 57.6201 32.504 55.1001 32.504C52.7001 32.504 50.6361 31.592 48.9081 29.768C47.2041 27.92 46.3521 25.664 46.3521 23C46.3521 20.36 47.2041 18.116 48.9081 16.268C50.6361 14.42 52.7001 13.496 55.1001 13.496C57.6201 13.496 59.5761 14.372 60.9681 16.124ZM52.4001 26.672C53.3361 27.608 54.5241 28.076 55.9641 28.076C57.4041 28.076 58.5921 27.608 59.5281 26.672C60.4881 25.712 60.9681 24.488 60.9681 23C60.9681 21.512 60.4881 20.3 59.5281 19.364C58.5921 18.404 57.4041 17.924 55.9641 17.924C54.5241 17.924 53.3361 18.404 52.4001 19.364C51.4641 20.3 50.9961 21.512 50.9961 23C50.9961 24.488 51.4641 25.712 52.4001 26.672ZM80.2992 13.496C82.7232 13.496 84.7872 14.42 86.4912 16.268C88.2192 18.116 89.0832 20.36 89.0832 23C89.0832 25.688 88.2192 27.944 86.4912 29.768C84.8112 31.592 82.7472 32.504 80.2992 32.504C77.7792 32.504 75.8352 31.628 74.4672 29.876V39.2H69.8232V14H74.4672V16.124C75.8352 14.372 77.7792 13.496 80.2992 13.496ZM75.8712 26.672C76.8072 27.608 77.9952 28.076 79.4352 28.076C80.8752 28.076 82.0632 27.608 82.9992 26.672C83.9592 25.712 84.4392 24.488 84.4392 23C84.4392 21.512 83.9592 20.3 82.9992 19.364C82.0632 18.404 80.8752 17.924 79.4352 17.924C77.9952 17.924 76.8072 18.404 75.8712 19.364C74.9352 20.3 74.4672 21.512 74.4672 23C74.4672 24.488 74.9352 25.712 75.8712 26.672ZM94.6624 11.84C93.8944 11.84 93.2224 11.564 92.6464 11.012C92.0944 10.436 91.8184 9.764 91.8184 8.996C91.8184 8.228 92.0944 7.556 92.6464 6.98C93.2224 6.404 93.8944 6.116 94.6624 6.116C95.4544 6.116 96.1264 6.404 96.6784 6.98C97.2544 7.556 97.5424 8.228 97.5424 8.996C97.5424 9.764 97.2544 10.436 96.6784 11.012C96.1264 11.564 95.4544 11.84 94.6624 11.84ZM97.0024 32H92.3584V14H97.0024V32ZM105.897 14V17.096C106.305 15.968 107.001 15.116 107.985 14.54C108.969 13.94 110.097 13.64 111.369 13.64V18.824C109.953 18.632 108.681 18.92 107.553 19.688C106.449 20.432 105.897 21.668 105.897 23.396V32H101.253V14H105.897ZM127.097 16.124V14H131.741V32H127.097V29.876C125.705 31.628 123.749 32.504 121.229 32.504C118.829 32.504 116.765 31.592 115.037 29.768C113.333 27.92 112.481 25.664 112.481 23C112.481 20.36 113.333 18.116 115.037 16.268C116.765 14.42 118.829 13.496 121.229 13.496C123.749 13.496 125.705 14.372 127.097 16.124ZM118.529 26.672C119.465 27.608 120.653 28.076 122.093 28.076C123.533 28.076 124.721 27.608 125.657 26.672C126.617 25.712 127.097 24.488 127.097 23C127.097 21.512 126.617 20.3 125.657 19.364C124.721 18.404 123.533 17.924 122.093 17.924C120.653 17.924 119.465 18.404 118.529 19.364C117.593 20.3 117.125 21.512 117.125 23C117.125 24.488 117.593 25.712 118.529 26.672Z" fill="#0464FF"/>
<path d="M39.768 14V17.096C40.176 15.968 40.872 15.116 41.856 14.54C42.84 13.94 43.968 13.64 45.24 13.64V18.824C43.824 18.632 42.552 18.92 41.424 19.688C40.32 20.432 39.768 21.668 39.768 23.396V32H35.124V14H39.768ZM60.9681 16.124V14H65.6121V32H60.9681V29.876C59.5761 31.628 57.6201 32.504 55.1001 32.504C52.7001 32.504 50.6361 31.592 48.9081 29.768C47.2041 27.92 46.3521 25.664 46.3521 23C46.3521 20.36 47.2041 18.116 48.9081 16.268C50.6361 14.42 52.7001 13.496 55.1001 13.496C57.6201 13.496 59.5761 14.372 60.9681 16.124ZM52.4001 26.672C53.3361 27.608 54.5241 28.076 55.9641 28.076C57.4041 28.076 58.5921 27.608 59.5281 26.672C60.4881 25.712 60.9681 24.488 60.9681 23C60.9681 21.512 60.4881 20.3 59.5281 19.364C58.5921 18.404 57.4041 17.924 55.9641 17.924C54.5241 17.924 53.3361 18.404 52.4001 19.364C51.4641 20.3 50.9961 21.512 50.9961 23C50.9961 24.488 51.4641 25.712 52.4001 26.672ZM80.2992 13.496C82.7232 13.496 84.7872 14.42 86.4912 16.268C88.2192 18.116 89.0832 20.36 89.0832 23C89.0832 25.688 88.2192 27.944 86.4912 29.768C84.8112 31.592 82.7472 32.504 80.2992 32.504C77.7792 32.504 75.8352 31.628 74.4672 29.876V39.2H69.8232V14H74.4672V16.124C75.8352 14.372 77.7792 13.496 80.2992 13.496ZM75.8712 26.672C76.8072 27.608 77.9952 28.076 79.4352 28.076C80.8752 28.076 82.0632 27.608 82.9992 26.672C83.9592 25.712 84.4392 24.488 84.4392 23C84.4392 21.512 83.9592 20.3 82.9992 19.364C82.0632 18.404 80.8752 17.924 79.4352 17.924C77.9952 17.924 76.8072 18.404 75.8712 19.364C74.9352 20.3 74.4672 21.512 74.4672 23C74.4672 24.488 74.9352 25.712 75.8712 26.672ZM94.6624 11.84C93.8944 11.84 93.2224 11.564 92.6464 11.012C92.0944 10.436 91.8184 9.764 91.8184 8.996C91.8184 8.228 92.0944 7.556 92.6464 6.98C93.2224 6.404 93.8944 6.116 94.6624 6.116C95.4544 6.116 96.1264 6.404 96.6784 6.98C97.2544 7.556 97.5424 8.228 97.5424 8.996C97.5424 9.764 97.2544 10.436 96.6784 11.012C96.1264 11.564 95.4544 11.84 94.6624 11.84ZM97.0024 32H92.3584V14H97.0024V32ZM105.897 14V17.096C106.305 15.968 107.001 15.116 107.985 14.54C108.969 13.94 110.097 13.64 111.369 13.64V18.824C109.953 18.632 108.681 18.92 107.553 19.688C106.449 20.432 105.897 21.668 105.897 23.396V32H101.253V14H105.897ZM127.097 16.124V14H131.741V32H127.097V29.876C125.705 31.628 123.749 32.504 121.229 32.504C118.829 32.504 116.765 31.592 115.037 29.768C113.333 27.92 112.481 25.664 112.481 23C112.481 20.36 113.333 18.116 115.037 16.268C116.765 14.42 118.829 13.496 121.229 13.496C123.749 13.496 125.705 14.372 127.097 16.124ZM118.529 26.672C119.465 27.608 120.653 28.076 122.093 28.076C123.533 28.076 124.721 27.608 125.657 26.672C126.617 25.712 127.097 24.488 127.097 23C127.097 21.512 126.617 20.3 125.657 19.364C124.721 18.404 123.533 17.924 122.093 17.924C120.653 17.924 119.465 18.404 118.529 19.364C117.593 20.3 117.125 21.512 117.125 23C117.125 24.488 117.593 25.712 118.529 26.672Z" fill="#026ED1"/>
<path d="M39.768 14V17.096C40.176 15.968 40.872 15.116 41.856 14.54C42.84 13.94 43.968 13.64 45.24 13.64V18.824C43.824 18.632 42.552 18.92 41.424 19.688C40.32 20.432 39.768 21.668 39.768 23.396V32H35.124V14H39.768ZM60.9681 16.124V14H65.6121V32H60.9681V29.876C59.5761 31.628 57.6201 32.504 55.1001 32.504C52.7001 32.504 50.6361 31.592 48.9081 29.768C47.2041 27.92 46.3521 25.664 46.3521 23C46.3521 20.36 47.2041 18.116 48.9081 16.268C50.6361 14.42 52.7001 13.496 55.1001 13.496C57.6201 13.496 59.5761 14.372 60.9681 16.124ZM52.4001 26.672C53.3361 27.608 54.5241 28.076 55.9641 28.076C57.4041 28.076 58.5921 27.608 59.5281 26.672C60.4881 25.712 60.9681 24.488 60.9681 23C60.9681 21.512 60.4881 20.3 59.5281 19.364C58.5921 18.404 57.4041 17.924 55.9641 17.924C54.5241 17.924 53.3361 18.404 52.4001 19.364C51.4641 20.3 50.9961 21.512 50.9961 23C50.9961 24.488 51.4641 25.712 52.4001 26.672ZM80.2992 13.496C82.7232 13.496 84.7872 14.42 86.4912 16.268C88.2192 18.116 89.0832 20.36 89.0832 23C89.0832 25.688 88.2192 27.944 86.4912 29.768C84.8112 31.592 82.7472 32.504 80.2992 32.504C77.7792 32.504 75.8352 31.628 74.4672 29.876V39.2H69.8232V14H74.4672V16.124C75.8352 14.372 77.7792 13.496 80.2992 13.496ZM75.8712 26.672C76.8072 27.608 77.9952 28.076 79.4352 28.076C80.8752 28.076 82.0632 27.608 82.9992 26.672C83.9592 25.712 84.4392 24.488 84.4392 23C84.4392 21.512 83.9592 20.3 82.9992 19.364C82.0632 18.404 80.8752 17.924 79.4352 17.924C77.9952 17.924 76.8072 18.404 75.8712 19.364C74.9352 20.3 74.4672 21.512 74.4672 23C74.4672 24.488 74.9352 25.712 75.8712 26.672ZM94.6624 11.84C93.8944 11.84 93.2224 11.564 92.6464 11.012C92.0944 10.436 91.8184 9.764 91.8184 8.996C91.8184 8.228 92.0944 7.556 92.6464 6.98C93.2224 6.404 93.8944 6.116 94.6624 6.116C95.4544 6.116 96.1264 6.404 96.6784 6.98C97.2544 7.556 97.5424 8.228 97.5424 8.996C97.5424 9.764 97.2544 10.436 96.6784 11.012C96.1264 11.564 95.4544 11.84 94.6624 11.84ZM97.0024 32H92.3584V14H97.0024V32ZM105.897 14V17.096C106.305 15.968 107.001 15.116 107.985 14.54C108.969 13.94 110.097 13.64 111.369 13.64V18.824C109.953 18.632 108.681 18.92 107.553 19.688C106.449 20.432 105.897 21.668 105.897 23.396V32H101.253V14H105.897ZM127.097 16.124V14H131.741V32H127.097V29.876C125.705 31.628 123.749 32.504 121.229 32.504C118.829 32.504 116.765 31.592 115.037 29.768C113.333 27.92 112.481 25.664 112.481 23C112.481 20.36 113.333 18.116 115.037 16.268C116.765 14.42 118.829 13.496 121.229 13.496C123.749 13.496 125.705 14.372 127.097 16.124ZM118.529 26.672C119.465 27.608 120.653 28.076 122.093 28.076C123.533 28.076 124.721 27.608 125.657 26.672C126.617 25.712 127.097 24.488 127.097 23C127.097 21.512 126.617 20.3 125.657 19.364C124.721 18.404 123.533 17.924 122.093 17.924C120.653 17.924 119.465 18.404 118.529 19.364C117.593 20.3 117.125 21.512 117.125 23C117.125 24.488 117.593 25.712 118.529 26.672Z" fill="black"/>
</svg>
