<svg width="58" height="58" viewBox="0 0 58 58" fill="none" xmlns="http://www.w3.org/2000/svg">
<path fill-rule="evenodd" clip-rule="evenodd" d="M58 29C58 45.0153 45.0153 58 29 58C12.9848 58 0 45.0153 0 29C0 12.9848 12.9848 0 29 0C45.0153 0 58 12.9848 58 29ZM30.0392 21.4093C27.2189 22.5813 21.5808 25.0101 13.1273 28.6931C11.7547 29.2393 11.0345 29.7733 10.9693 30.2953C10.8581 31.1798 11.9649 31.5278 13.4681 31.9991C13.6735 32.0643 13.8862 32.1296 14.1037 32.2021C15.5851 32.683 17.5764 33.2461 18.6108 33.2678C19.5508 33.2872 20.5997 32.9005 21.7573 32.1078C29.6549 26.7743 33.7318 24.0797 33.988 24.0217C34.1693 23.9806 34.4206 23.9274 34.5898 24.0797C34.7589 24.2295 34.742 24.5147 34.7251 24.592C34.6139 25.0584 30.2784 29.0918 28.0309 31.1798C27.3301 31.8299 26.8347 32.2915 26.7332 32.3978C26.506 32.6323 26.274 32.857 26.0517 33.0721C24.6742 34.3964 23.6447 35.3921 26.1097 37.0161C27.2938 37.7967 28.2412 38.4419 29.1861 39.0848C30.218 39.788 31.2475 40.4888 32.5815 41.3637C32.9198 41.586 33.2437 41.8156 33.5603 42.0403C34.7613 42.8983 35.8416 43.6667 37.1756 43.5459C37.9489 43.4734 38.7512 42.746 39.1572 40.5734C40.1167 35.4356 42.0065 24.3093 42.4439 19.7224C42.4705 19.3416 42.4543 18.959 42.3956 18.5818C42.3604 18.2771 42.2121 17.9967 41.9799 17.7963C41.6343 17.5136 41.0978 17.4532 40.8562 17.458C39.7663 17.4773 38.0939 18.0598 30.0392 21.4093Z" fill="#57A9DA"/>
</svg>
