<svg width="456" height="208" viewBox="0 0 456 208" fill="none" xmlns="http://www.w3.org/2000/svg">
<path d="M21.3701 7.91504C19.5739 7.91504 17.9795 8.26823 16.5869 8.97461C15.2145 9.66081 14.054 10.6598 13.1055 11.9717C12.1771 13.2835 11.4707 14.8678 10.9863 16.7246C10.502 18.5814 10.2598 20.6702 10.2598 22.9912C10.2598 26.1195 10.6432 28.7936 11.4102 31.0137C12.1973 33.2135 13.4082 34.8988 15.043 36.0693C16.6777 37.2197 18.7868 37.7949 21.3701 37.7949C23.1663 37.7949 24.9626 37.5931 26.7588 37.1895C28.5752 36.7858 30.543 36.2106 32.6621 35.4639V43.335C30.7044 44.1423 28.777 44.7174 26.8799 45.0605C24.9827 45.4238 22.8535 45.6055 20.4922 45.6055C15.931 45.6055 12.1771 44.667 9.23047 42.79C6.30404 40.8929 4.13444 38.249 2.72168 34.8584C1.30892 31.4476 0.602539 27.4717 0.602539 22.9307C0.602539 19.5804 1.05664 16.5127 1.96484 13.7275C2.87305 10.9424 4.20508 8.5306 5.96094 6.49219C7.7168 4.45378 9.88639 2.87956 12.4697 1.76953C15.0531 0.659505 18.0199 0.104492 21.3701 0.104492C23.57 0.104492 25.7699 0.387044 27.9697 0.952148C30.1898 1.49707 32.3089 2.25391 34.3271 3.22266L31.2998 10.8516C29.6449 10.0645 27.9798 9.37825 26.3047 8.79297C24.6296 8.20768 22.9847 7.91504 21.3701 7.91504Z" fill="url(#paint0_linear_1_272)"/>
<path d="M54.0061 10.458C58.5471 10.458 62.0286 11.4469 64.4504 13.4248C66.8723 15.4027 68.0832 18.4098 68.0832 22.4463V45H61.635L59.8489 40.3984H59.6067C58.6379 41.6094 57.649 42.5983 56.6399 43.3652C55.6308 44.1322 54.4703 44.6973 53.1584 45.0605C51.8466 45.4238 50.2522 45.6055 48.3752 45.6055C46.3772 45.6055 44.581 45.222 42.9866 44.4551C41.4123 43.6882 40.1711 42.5176 39.2629 40.9434C38.3547 39.349 37.9006 37.3307 37.9006 34.8887C37.9006 31.2962 39.162 28.6523 41.6848 26.957C44.2076 25.2415 47.9918 24.293 53.0373 24.1113L58.9104 23.9297V22.4463C58.9104 20.6702 58.4462 19.3685 57.5178 18.541C56.5894 17.7135 55.2978 17.2998 53.6428 17.2998C52.008 17.2998 50.4036 17.5319 48.8293 17.9961C47.2551 18.4603 45.6809 19.0456 44.1067 19.752L41.0491 13.5156C42.8453 12.5671 44.8534 11.8203 47.0735 11.2754C49.3137 10.7305 51.6246 10.458 54.0061 10.458ZM58.9104 29.3184L55.3381 29.4395C52.3511 29.5202 50.2724 30.055 49.1018 31.0439C47.9514 32.0329 47.3762 33.3346 47.3762 34.9492C47.3762 36.362 47.7899 37.3711 48.6174 37.9766C49.4449 38.5618 50.5246 38.8545 51.8567 38.8545C53.8345 38.8545 55.4996 38.2692 56.8518 37.0986C58.2242 35.9281 58.9104 34.263 58.9104 32.1035V29.3184Z" fill="url(#paint1_linear_1_272)"/>
<path d="M119.035 11.1543V45H110.407V28.3799C110.407 26.7451 110.437 25.1406 110.498 23.5664C110.558 21.9922 110.649 20.5391 110.77 19.207H110.588L101.234 45H94.3012L84.7954 19.1465H84.5532C84.7147 20.4987 84.8257 21.9518 84.8862 23.5059C84.9468 25.0599 84.977 26.7653 84.977 28.6221V45H76.3794V11.1543H89.4575L97.8735 34.1016L106.441 11.1543H119.035Z" fill="url(#paint2_linear_1_272)"/>
<path d="M127.512 45V11.1543H136.746V24.2324H141.196C144.647 24.2324 147.493 24.5957 149.733 25.3223C151.994 26.0488 153.669 27.1589 154.759 28.6523C155.848 30.1257 156.393 31.9824 156.393 34.2227C156.393 36.4023 155.889 38.2995 154.88 39.9141C153.87 41.5286 152.276 42.7799 150.096 43.668C147.917 44.556 145.061 45 141.529 45H127.512ZM136.746 38.6123H141.014C142.811 38.6123 144.284 38.2894 145.434 37.6436C146.585 36.9775 147.16 35.8776 147.16 34.3438C147.16 33.0319 146.635 32.0833 145.586 31.498C144.536 30.9128 142.972 30.6201 140.893 30.6201H136.746V38.6123ZM161.298 45V11.1543H170.531V45H161.298Z" fill="url(#paint3_linear_1_272)"/>
<path d="M192.965 10.5186C196.093 10.5186 198.787 11.124 201.048 12.335C203.308 13.5257 205.054 15.2614 206.285 17.542C207.516 19.8226 208.132 22.6077 208.132 25.8975V30.3779H186.305C186.406 32.9814 187.183 35.0299 188.636 36.5234C190.109 37.9967 192.147 38.7334 194.751 38.7334C196.91 38.7334 198.888 38.5114 200.685 38.0674C202.481 37.6234 204.327 36.9574 206.225 36.0693V43.2139C204.549 44.0413 202.794 44.6468 200.957 45.0303C199.141 45.4137 196.931 45.6055 194.327 45.6055C190.936 45.6055 187.929 44.9798 185.306 43.7285C182.702 42.4772 180.654 40.57 179.16 38.0068C177.687 35.4437 176.95 32.2145 176.95 28.3193C176.95 24.3636 177.616 21.0739 178.948 18.4502C180.3 15.8063 182.177 13.8285 184.579 12.5166C186.981 11.1846 189.776 10.5186 192.965 10.5186ZM193.025 17.0879C191.229 17.0879 189.736 17.6631 188.545 18.8135C187.374 19.9639 186.698 21.7702 186.517 24.2324H199.474C199.453 22.86 199.201 21.639 198.717 20.5693C198.253 19.4997 197.546 18.652 196.598 18.0264C195.669 17.4007 194.478 17.0879 193.025 17.0879Z" fill="url(#paint4_linear_1_272)"/>
<path d="M238.498 11.1543V24.1719H251.395V11.1543H260.628V45H251.395V31.0439H238.498V45H229.265V11.1543H238.498Z" fill="url(#paint5_linear_1_272)"/>
<path d="M278.007 11.1543V24.5352C278.007 25.2214 277.976 26.0892 277.916 27.1387C277.875 28.168 277.815 29.2174 277.734 30.2871C277.653 31.3568 277.573 32.3154 277.492 33.1631C277.411 34.0107 277.351 34.5859 277.31 34.8887L292.931 11.1543H304.042V45H295.111V31.498C295.111 30.388 295.151 29.167 295.232 27.835C295.313 26.4827 295.404 25.2113 295.505 24.0205C295.605 22.8298 295.676 21.9316 295.716 21.3262L280.156 45H269.076V11.1543H278.007Z" fill="url(#paint6_linear_1_272)"/>
<path d="M324.841 10.5186C327.283 10.5186 329.563 10.8415 331.683 11.4873C333.802 12.113 335.517 13.0918 336.829 14.4238C338.141 15.7357 338.797 17.431 338.797 19.5098C338.797 21.5482 338.181 23.1729 336.95 24.3838C335.719 25.5745 334.084 26.4323 332.046 26.957V27.2598C333.479 27.6029 334.77 28.0671 335.921 28.6523C337.091 29.2376 338.02 30.0449 338.706 31.0742C339.392 32.1035 339.735 33.4557 339.735 35.1309C339.735 37.0078 339.14 38.7435 337.949 40.3379C336.758 41.9121 334.932 43.1836 332.47 44.1523C330.028 45.1211 326.889 45.6055 323.055 45.6055C321.238 45.6055 319.523 45.5247 317.908 45.3633C316.314 45.2018 314.85 44.9697 313.518 44.667C312.186 44.3441 311.026 43.9606 310.037 43.5166V35.8877C311.43 36.5335 313.145 37.1289 315.184 37.6738C317.242 38.2188 319.432 38.4912 321.753 38.4912C323.428 38.4912 324.942 38.3701 326.294 38.1279C327.666 37.8857 328.746 37.4821 329.533 36.917C330.34 36.3317 330.744 35.5547 330.744 34.5859C330.744 33.6777 330.391 32.931 329.684 32.3457C328.998 31.7402 327.939 31.2962 326.506 31.0137C325.093 30.7109 323.297 30.5596 321.117 30.5596H317.545V24.1719H320.935C324.003 24.1719 326.375 23.9196 328.05 23.415C329.725 22.9105 330.562 21.9821 330.562 20.6299C330.562 19.54 330.028 18.7227 328.958 18.1777C327.888 17.6328 326.122 17.3604 323.66 17.3604C322.066 17.3604 320.31 17.5521 318.392 17.9355C316.475 18.2988 314.679 18.8236 313.004 19.5098L310.279 13.0615C312.237 12.3148 314.356 11.7093 316.637 11.2451C318.937 10.7607 321.672 10.5186 324.841 10.5186Z" fill="url(#paint7_linear_1_272)"/>
<path d="M367.921 11.1543H378.093L364.682 27.3809L379.274 45H368.799L354.964 27.835V45H345.731V11.1543H354.964V27.5928L367.921 11.1543Z" fill="url(#paint8_linear_1_272)"/>
<path d="M391.808 11.1543V24.5352C391.808 25.2214 391.778 26.0892 391.717 27.1387C391.677 28.168 391.616 29.2174 391.536 30.2871C391.455 31.3568 391.374 32.3154 391.293 33.1631C391.213 34.0107 391.152 34.5859 391.112 34.8887L406.733 11.1543H417.843V45H408.913V31.498C408.913 30.388 408.953 29.167 409.034 27.835C409.114 26.4827 409.205 25.2113 409.306 24.0205C409.407 22.8298 409.478 21.9316 409.518 21.3262L393.957 45H382.877V11.1543H391.808Z" fill="url(#paint9_linear_1_272)"/>
<path d="M440.277 10.5186C443.405 10.5186 446.1 11.124 448.36 12.335C450.62 13.5257 452.366 15.2614 453.597 17.542C454.828 19.8226 455.444 22.6077 455.444 25.8975V30.3779H433.617C433.718 32.9814 434.495 35.0299 435.948 36.5234C437.421 37.9967 439.46 38.7334 442.063 38.7334C444.223 38.7334 446.2 38.5114 447.997 38.0674C449.793 37.6234 451.64 36.9574 453.537 36.0693V43.2139C451.862 44.0413 450.106 44.6468 448.269 45.0303C446.453 45.4137 444.243 45.6055 441.639 45.6055C438.249 45.6055 435.241 44.9798 432.618 43.7285C430.014 42.4772 427.966 40.57 426.472 38.0068C424.999 35.4437 424.262 32.2145 424.262 28.3193C424.262 24.3636 424.928 21.0739 426.26 18.4502C427.613 15.8063 429.49 13.8285 431.891 12.5166C434.293 11.1846 437.088 10.5186 440.277 10.5186ZM440.338 17.0879C438.541 17.0879 437.048 17.6631 435.857 18.8135C434.686 19.9639 434.01 21.7702 433.829 24.2324H446.786C446.766 22.86 446.513 21.639 446.029 20.5693C445.565 19.4997 444.858 18.652 443.91 18.0264C442.981 17.4007 441.791 17.0879 440.338 17.0879Z" fill="url(#paint10_linear_1_272)"/>
<path d="M24.0342 85.1543H34.2061L20.7949 101.381L35.3867 119H24.9121L11.0771 101.835V119H1.84375V85.1543H11.0771V101.593L24.0342 85.1543Z" fill="url(#paint11_linear_1_272)"/>
<path d="M69.7483 102.017C69.7483 104.842 69.3648 107.345 68.5979 109.524C67.8511 111.704 66.7512 113.551 65.2981 115.064C63.8651 116.558 62.1295 117.688 60.0911 118.455C58.0728 119.222 55.7922 119.605 53.2493 119.605C50.8677 119.605 48.678 119.222 46.6799 118.455C44.7021 117.688 42.9765 116.558 41.5032 115.064C40.05 113.551 38.9198 111.704 38.1125 109.524C37.3254 107.345 36.9319 104.842 36.9319 102.017C36.9319 98.2627 37.5979 95.084 38.9299 92.4805C40.262 89.877 42.1591 87.8991 44.6213 86.5469C47.0836 85.1947 50.0201 84.5186 53.4309 84.5186C56.5995 84.5186 59.4049 85.1947 61.8469 86.5469C64.3092 87.8991 66.2366 89.877 67.6291 92.4805C69.0419 95.084 69.7483 98.2627 69.7483 102.017ZM46.3469 102.017C46.3469 104.237 46.5891 106.104 47.0735 107.617C47.5578 109.131 48.3147 110.271 49.344 111.038C50.3733 111.805 51.7154 112.188 53.3703 112.188C55.0051 112.188 56.3271 111.805 57.3362 111.038C58.3655 110.271 59.1122 109.131 59.5764 107.617C60.0608 106.104 60.303 104.237 60.303 102.017C60.303 99.7764 60.0608 97.9196 59.5764 96.4463C59.1122 94.9528 58.3655 93.8327 57.3362 93.0859C56.3069 92.3392 54.9648 91.9658 53.3098 91.9658C50.8677 91.9658 49.0917 92.8034 47.9817 94.4785C46.8918 96.1536 46.3469 98.6663 46.3469 102.017Z" fill="url(#paint12_linear_1_272)"/>
<path d="M118.792 85.1543V119H110.165V102.38C110.165 100.745 110.195 99.1406 110.255 97.5664C110.316 95.9922 110.407 94.5391 110.528 93.207H110.346L100.992 119H94.0591L84.5532 93.1465H84.311C84.4725 94.4987 84.5835 95.9518 84.644 97.5059C84.7046 99.0599 84.7348 100.765 84.7348 102.622V119H76.1372V85.1543H89.2153L97.6313 108.102L106.199 85.1543H118.792Z" fill="url(#paint13_linear_1_272)"/>
<path d="M136.201 85.1543V98.5352C136.201 99.2214 136.171 100.089 136.11 101.139C136.07 102.168 136.009 103.217 135.928 104.287C135.848 105.357 135.767 106.315 135.686 107.163C135.606 108.011 135.545 108.586 135.505 108.889L151.126 85.1543H162.236V119H153.305V105.498C153.305 104.388 153.346 103.167 153.426 101.835C153.507 100.483 153.598 99.2113 153.699 98.0205C153.8 96.8298 153.87 95.9316 153.911 95.3262L138.35 119H127.27V85.1543H136.201Z" fill="url(#paint14_linear_1_272)"/>
<path d="M184.458 119.605C181.108 119.605 178.252 119 175.891 117.789C173.529 116.558 171.733 114.661 170.502 112.098C169.271 109.535 168.655 106.255 168.655 102.259C168.655 98.1214 169.352 94.751 170.744 92.1475C172.157 89.5238 174.104 87.5964 176.587 86.3652C179.089 85.1341 181.986 84.5186 185.275 84.5186C187.616 84.5186 189.635 84.7506 191.33 85.2148C193.046 85.6589 194.539 86.1937 195.811 86.8193L193.086 93.9639C191.633 93.3786 190.281 92.9043 189.029 92.541C187.778 92.1576 186.527 91.9658 185.275 91.9658C183.661 91.9658 182.319 92.3493 181.249 93.1162C180.179 93.863 179.382 94.9932 178.857 96.5068C178.333 98.0205 178.07 99.9176 178.07 102.198C178.07 104.438 178.353 106.295 178.918 107.769C179.483 109.242 180.3 110.342 181.37 111.068C182.44 111.775 183.741 112.128 185.275 112.128C187.193 112.128 188.898 111.876 190.392 111.371C191.885 110.846 193.338 110.12 194.751 109.191V117.093C193.338 117.981 191.855 118.617 190.301 119C188.767 119.404 186.819 119.605 184.458 119.605Z" fill="url(#paint15_linear_1_272)"/>
<path d="M215.126 119.605C211.776 119.605 208.92 119 206.559 117.789C204.197 116.558 202.401 114.661 201.17 112.098C199.939 109.535 199.323 106.255 199.323 102.259C199.323 98.1214 200.02 94.751 201.412 92.1475C202.825 89.5238 204.773 87.5964 207.255 86.3652C209.758 85.1341 212.654 84.5186 215.944 84.5186C218.285 84.5186 220.303 84.7506 221.998 85.2148C223.714 85.6589 225.207 86.1937 226.479 86.8193L223.754 93.9639C222.301 93.3786 220.949 92.9043 219.697 92.541C218.446 92.1576 217.195 91.9658 215.944 91.9658C214.329 91.9658 212.987 92.3493 211.917 93.1162C210.848 93.863 210.05 94.9932 209.526 96.5068C209.001 98.0205 208.738 99.9176 208.738 102.198C208.738 104.438 209.021 106.295 209.586 107.769C210.151 109.242 210.969 110.342 212.038 111.068C213.108 111.775 214.41 112.128 215.944 112.128C217.861 112.128 219.566 111.876 221.06 111.371C222.553 110.846 224.006 110.12 225.419 109.191V117.093C224.006 117.981 222.523 118.617 220.969 119C219.435 119.404 217.488 119.605 215.126 119.605Z" fill="url(#paint16_linear_1_272)"/>
<path d="M240.981 85.1543V98.5352C240.981 99.2214 240.951 100.089 240.89 101.139C240.85 102.168 240.789 103.217 240.708 104.287C240.628 105.357 240.547 106.315 240.466 107.163C240.386 108.011 240.325 108.586 240.285 108.889L255.906 85.1543H267.016V119H258.085V105.498C258.085 104.388 258.126 103.167 258.206 101.835C258.287 100.483 258.378 99.2113 258.479 98.0205C258.58 96.8298 258.65 95.9316 258.691 95.3262L243.13 119H232.05V85.1543H240.981Z" fill="url(#paint17_linear_1_272)"/>
<path d="M284.424 85.1543V98.5352C284.424 99.2214 284.394 100.089 284.334 101.139C284.293 102.168 284.233 103.217 284.152 104.287C284.071 105.357 283.991 106.315 283.91 107.163C283.829 108.011 283.769 108.586 283.728 108.889L299.349 85.1543H310.46V119H301.529V105.498C301.529 104.388 301.569 103.167 301.65 101.835C301.731 100.483 301.822 99.2113 301.923 98.0205C302.023 96.8298 302.094 95.9316 302.134 95.3262L286.574 119H275.494V85.1543H284.424Z" fill="url(#paint18_linear_1_272)"/>
<path d="M11.0771 159.154V172.172H23.9736V159.154H33.207V193H23.9736V179.044H11.0771V193H1.84375V159.154H11.0771Z" fill="url(#paint19_linear_1_272)"/>
<path d="M55.5198 158.458C60.0608 158.458 63.5422 159.447 65.9641 161.425C68.386 163.403 69.5969 166.41 69.5969 170.446V193H63.1487L61.3625 188.398H61.1203C60.1516 189.609 59.1627 190.598 58.1536 191.365C57.1444 192.132 55.984 192.697 54.6721 193.061C53.3603 193.424 51.7659 193.605 49.8889 193.605C47.8909 193.605 46.0946 193.222 44.5002 192.455C42.926 191.688 41.6848 190.518 40.7766 188.943C39.8684 187.349 39.4143 185.331 39.4143 182.889C39.4143 179.296 40.6757 176.652 43.1985 174.957C45.7213 173.242 49.5054 172.293 54.551 172.111L60.4241 171.93V170.446C60.4241 168.67 59.9599 167.368 59.0315 166.541C58.1031 165.714 56.8114 165.3 55.1565 165.3C53.5217 165.3 51.9172 165.532 50.343 165.996C48.7688 166.46 47.1946 167.046 45.6203 167.752L42.5627 161.516C44.359 160.567 46.3671 159.82 48.5871 159.275C50.8274 158.73 53.1383 158.458 55.5198 158.458ZM60.4241 177.318L56.8518 177.439C53.8648 177.52 51.786 178.055 50.6155 179.044C49.4651 180.033 48.8899 181.335 48.8899 182.949C48.8899 184.362 49.3036 185.371 50.1311 185.977C50.9586 186.562 52.0383 186.854 53.3703 186.854C55.3482 186.854 57.0133 186.269 58.3655 185.099C59.7379 183.928 60.4241 182.263 60.4241 180.104V177.318Z" fill="url(#paint20_linear_1_272)"/>
<path d="M120.761 166.087H109.681V193H100.448V166.087H89.3376V159.154H120.761V166.087Z" fill="url(#paint21_linear_1_272)"/>
<path d="M156.606 176.017C156.606 178.842 156.223 181.345 155.456 183.524C154.709 185.704 153.609 187.551 152.156 189.064C150.723 190.558 148.988 191.688 146.949 192.455C144.931 193.222 142.65 193.605 140.107 193.605C137.726 193.605 135.536 193.222 133.538 192.455C131.56 191.688 129.835 190.558 128.361 189.064C126.908 187.551 125.778 185.704 124.971 183.524C124.184 181.345 123.79 178.842 123.79 176.017C123.79 172.263 124.456 169.084 125.788 166.48C127.12 163.877 129.017 161.899 131.479 160.547C133.942 159.195 136.878 158.519 140.289 158.519C143.458 158.519 146.263 159.195 148.705 160.547C151.167 161.899 153.095 163.877 154.487 166.48C155.9 169.084 156.606 172.263 156.606 176.017ZM133.205 176.017C133.205 178.237 133.447 180.104 133.932 181.617C134.416 183.131 135.173 184.271 136.202 185.038C137.231 185.805 138.574 186.188 140.228 186.188C141.863 186.188 143.185 185.805 144.194 185.038C145.224 184.271 145.97 183.131 146.435 181.617C146.919 180.104 147.161 178.237 147.161 176.017C147.161 173.776 146.919 171.92 146.435 170.446C145.97 168.953 145.224 167.833 144.194 167.086C143.165 166.339 141.823 165.966 140.168 165.966C137.726 165.966 135.95 166.803 134.84 168.479C133.75 170.154 133.205 172.666 133.205 176.017Z" fill="url(#paint22_linear_1_272)"/>
<path d="M181.825 158.519C185.64 158.519 188.718 160.002 191.059 162.969C193.42 165.936 194.601 170.285 194.601 176.017C194.601 179.851 194.046 183.08 192.936 185.704C191.826 188.308 190.292 190.275 188.334 191.607C186.376 192.939 184.126 193.605 181.583 193.605C179.948 193.605 178.546 193.404 177.375 193C176.205 192.576 175.206 192.041 174.378 191.396C173.551 190.729 172.834 190.023 172.229 189.276H171.744C171.906 190.084 172.027 190.911 172.108 191.759C172.188 192.606 172.229 193.434 172.229 194.241V207.895H162.995V159.154H170.503L171.805 163.544H172.229C172.834 162.636 173.571 161.798 174.439 161.031C175.307 160.264 176.346 159.659 177.557 159.215C178.788 158.751 180.211 158.519 181.825 158.519ZM178.859 165.905C177.244 165.905 175.962 166.238 175.014 166.904C174.065 167.57 173.369 168.569 172.925 169.901C172.501 171.233 172.269 172.919 172.229 174.957V175.956C172.229 178.136 172.431 179.982 172.834 181.496C173.258 183.01 173.954 184.16 174.923 184.947C175.912 185.734 177.264 186.128 178.98 186.128C180.392 186.128 181.553 185.734 182.461 184.947C183.369 184.16 184.045 183.01 184.489 181.496C184.954 179.962 185.186 178.095 185.186 175.896C185.186 172.586 184.671 170.093 183.642 168.418C182.613 166.743 181.018 165.905 178.859 165.905Z" fill="url(#paint23_linear_1_272)"/>
<path d="M224.361 159.154V166.087H210.223V193H200.99V159.154H224.361Z" fill="url(#paint24_linear_1_272)"/>
<path d="M260.175 176.017C260.175 178.842 259.792 181.345 259.025 183.524C258.278 185.704 257.178 187.551 255.725 189.064C254.292 190.558 252.557 191.688 250.518 192.455C248.5 193.222 246.219 193.605 243.676 193.605C241.295 193.605 239.105 193.222 237.107 192.455C235.129 191.688 233.404 190.558 231.93 189.064C230.477 187.551 229.347 185.704 228.54 183.524C227.753 181.345 227.359 178.842 227.359 176.017C227.359 172.263 228.025 169.084 229.357 166.48C230.689 163.877 232.586 161.899 235.049 160.547C237.511 159.195 240.447 158.519 243.858 158.519C247.027 158.519 249.832 159.195 252.274 160.547C254.736 161.899 256.664 163.877 258.056 166.48C259.469 169.084 260.175 172.263 260.175 176.017ZM236.774 176.017C236.774 178.237 237.016 180.104 237.501 181.617C237.985 183.131 238.742 184.271 239.771 185.038C240.8 185.805 242.143 186.188 243.798 186.188C245.432 186.188 246.754 185.805 247.763 185.038C248.793 184.271 249.539 183.131 250.004 181.617C250.488 180.104 250.73 178.237 250.73 176.017C250.73 173.776 250.488 171.92 250.004 170.446C249.539 168.953 248.793 167.833 247.763 167.086C246.734 166.339 245.392 165.966 243.737 165.966C241.295 165.966 239.519 166.803 238.409 168.479C237.319 170.154 236.774 172.666 236.774 176.017Z" fill="url(#paint25_linear_1_272)"/>
<path d="M296.565 168.024C296.565 169.841 295.99 171.395 294.84 172.687C293.71 173.958 292.034 174.775 289.814 175.139V175.381C292.156 175.663 294.043 176.481 295.475 177.833C296.908 179.165 297.625 180.85 297.625 182.889C297.625 184.826 297.12 186.562 296.111 188.096C295.102 189.609 293.498 190.81 291.298 191.698C289.098 192.566 286.222 193 282.67 193H266.564V159.154H282.67C285.314 159.154 287.685 159.437 289.784 160.002C291.883 160.547 293.538 161.465 294.749 162.757C295.96 164.049 296.565 165.804 296.565 168.024ZM288.059 182.404C288.059 181.072 287.534 180.114 286.484 179.528C285.455 178.923 283.921 178.62 281.883 178.62H275.798V186.612H282.064C283.8 186.612 285.233 186.289 286.363 185.644C287.493 184.998 288.059 183.918 288.059 182.404ZM287.211 168.751C287.211 167.701 286.797 166.924 285.97 166.42C285.142 165.915 283.921 165.663 282.307 165.663H275.798V172.354H281.247C283.205 172.354 284.688 172.071 285.697 171.506C286.706 170.941 287.211 170.022 287.211 168.751Z" fill="url(#paint26_linear_1_272)"/>
<path d="M334.62 193H325.387V166.087H316.88C316.456 171.052 315.952 175.28 315.366 178.771C314.781 182.263 314.034 185.109 313.126 187.309C312.218 189.488 311.088 191.083 309.736 192.092C308.383 193.101 306.718 193.605 304.74 193.605C303.651 193.605 302.672 193.525 301.804 193.363C300.956 193.202 300.179 192.96 299.473 192.637V185.25C299.917 185.432 300.391 185.583 300.896 185.704C301.4 185.805 301.915 185.855 302.44 185.855C303.025 185.855 303.58 185.623 304.105 185.159C304.629 184.695 305.124 183.898 305.588 182.768C306.052 181.617 306.486 180.033 306.89 178.015C307.314 175.996 307.697 173.443 308.04 170.355C308.383 167.268 308.706 163.534 309.009 159.154H334.62V193Z" fill="url(#paint27_linear_1_272)"/>
<path d="M389.84 176.017C389.84 179.771 389.194 182.959 387.903 185.583C386.631 188.207 384.805 190.205 382.423 191.577C380.062 192.929 377.246 193.605 373.977 193.605C371.192 193.605 368.699 193.081 366.499 192.031C364.3 190.982 362.503 189.387 361.111 187.248C359.718 185.089 358.82 182.354 358.416 179.044H352.331V193H343.098V159.154H352.331V172.172H358.538C358.961 169.225 359.859 166.743 361.232 164.725C362.624 162.686 364.421 161.142 366.621 160.093C368.82 159.043 371.333 158.519 374.159 158.519C377.206 158.519 379.9 159.195 382.242 160.547C384.603 161.899 386.46 163.877 387.812 166.48C389.164 169.084 389.84 172.263 389.84 176.017ZM367.71 176.017C367.71 178.237 367.922 180.104 368.346 181.617C368.79 183.131 369.476 184.271 370.405 185.038C371.353 185.805 372.584 186.188 374.098 186.188C375.592 186.188 376.802 185.805 377.731 185.038C378.659 184.271 379.335 183.131 379.759 181.617C380.203 180.104 380.425 178.237 380.425 176.017C380.425 173.776 380.203 171.92 379.759 170.446C379.335 168.953 378.649 167.833 377.701 167.086C376.772 166.339 375.551 165.966 374.038 165.966C372.544 165.966 371.333 166.339 370.405 167.086C369.476 167.833 368.79 168.953 368.346 170.446C367.922 171.92 367.71 173.776 367.71 176.017Z" fill="url(#paint28_linear_1_272)"/>
<defs>
<linearGradient id="paint0_linear_1_272" x1="-40.2674" y1="-15.9999" x2="660.905" y2="-80.7773" gradientUnits="userSpaceOnUse">
<stop stop-color="#5C88E8"/>
<stop offset="1" stop-color="#DB2F4E"/>
</linearGradient>
<linearGradient id="paint1_linear_1_272" x1="-40.2674" y1="-15.9999" x2="660.905" y2="-80.7773" gradientUnits="userSpaceOnUse">
<stop stop-color="#5C88E8"/>
<stop offset="1" stop-color="#DB2F4E"/>
</linearGradient>
<linearGradient id="paint2_linear_1_272" x1="-40.2674" y1="-15.9999" x2="660.905" y2="-80.7773" gradientUnits="userSpaceOnUse">
<stop stop-color="#5C88E8"/>
<stop offset="1" stop-color="#DB2F4E"/>
</linearGradient>
<linearGradient id="paint3_linear_1_272" x1="-40.2674" y1="-15.9999" x2="660.905" y2="-80.7773" gradientUnits="userSpaceOnUse">
<stop stop-color="#5C88E8"/>
<stop offset="1" stop-color="#DB2F4E"/>
</linearGradient>
<linearGradient id="paint4_linear_1_272" x1="-40.2674" y1="-15.9999" x2="660.905" y2="-80.7773" gradientUnits="userSpaceOnUse">
<stop stop-color="#5C88E8"/>
<stop offset="1" stop-color="#DB2F4E"/>
</linearGradient>
<linearGradient id="paint5_linear_1_272" x1="-40.2674" y1="-15.9999" x2="660.905" y2="-80.7773" gradientUnits="userSpaceOnUse">
<stop stop-color="#5C88E8"/>
<stop offset="1" stop-color="#DB2F4E"/>
</linearGradient>
<linearGradient id="paint6_linear_1_272" x1="-40.2674" y1="-15.9999" x2="660.905" y2="-80.7773" gradientUnits="userSpaceOnUse">
<stop stop-color="#5C88E8"/>
<stop offset="1" stop-color="#DB2F4E"/>
</linearGradient>
<linearGradient id="paint7_linear_1_272" x1="-40.2674" y1="-15.9999" x2="660.905" y2="-80.7773" gradientUnits="userSpaceOnUse">
<stop stop-color="#5C88E8"/>
<stop offset="1" stop-color="#DB2F4E"/>
</linearGradient>
<linearGradient id="paint8_linear_1_272" x1="-40.2674" y1="-15.9999" x2="660.905" y2="-80.7773" gradientUnits="userSpaceOnUse">
<stop stop-color="#5C88E8"/>
<stop offset="1" stop-color="#DB2F4E"/>
</linearGradient>
<linearGradient id="paint9_linear_1_272" x1="-40.2674" y1="-15.9999" x2="660.905" y2="-80.7773" gradientUnits="userSpaceOnUse">
<stop stop-color="#5C88E8"/>
<stop offset="1" stop-color="#DB2F4E"/>
</linearGradient>
<linearGradient id="paint10_linear_1_272" x1="-40.2674" y1="-15.9999" x2="660.905" y2="-80.7773" gradientUnits="userSpaceOnUse">
<stop stop-color="#5C88E8"/>
<stop offset="1" stop-color="#DB2F4E"/>
</linearGradient>
<linearGradient id="paint11_linear_1_272" x1="-40.2674" y1="-15.9999" x2="660.905" y2="-80.7773" gradientUnits="userSpaceOnUse">
<stop stop-color="#5C88E8"/>
<stop offset="1" stop-color="#DB2F4E"/>
</linearGradient>
<linearGradient id="paint12_linear_1_272" x1="-40.2674" y1="-15.9999" x2="660.905" y2="-80.7773" gradientUnits="userSpaceOnUse">
<stop stop-color="#5C88E8"/>
<stop offset="1" stop-color="#DB2F4E"/>
</linearGradient>
<linearGradient id="paint13_linear_1_272" x1="-40.2674" y1="-15.9999" x2="660.905" y2="-80.7773" gradientUnits="userSpaceOnUse">
<stop stop-color="#5C88E8"/>
<stop offset="1" stop-color="#DB2F4E"/>
</linearGradient>
<linearGradient id="paint14_linear_1_272" x1="-40.2674" y1="-15.9999" x2="660.905" y2="-80.7773" gradientUnits="userSpaceOnUse">
<stop stop-color="#5C88E8"/>
<stop offset="1" stop-color="#DB2F4E"/>
</linearGradient>
<linearGradient id="paint15_linear_1_272" x1="-40.2674" y1="-15.9999" x2="660.905" y2="-80.7773" gradientUnits="userSpaceOnUse">
<stop stop-color="#5C88E8"/>
<stop offset="1" stop-color="#DB2F4E"/>
</linearGradient>
<linearGradient id="paint16_linear_1_272" x1="-40.2674" y1="-15.9999" x2="660.905" y2="-80.7773" gradientUnits="userSpaceOnUse">
<stop stop-color="#5C88E8"/>
<stop offset="1" stop-color="#DB2F4E"/>
</linearGradient>
<linearGradient id="paint17_linear_1_272" x1="-40.2674" y1="-15.9999" x2="660.905" y2="-80.7773" gradientUnits="userSpaceOnUse">
<stop stop-color="#5C88E8"/>
<stop offset="1" stop-color="#DB2F4E"/>
</linearGradient>
<linearGradient id="paint18_linear_1_272" x1="-40.2674" y1="-15.9999" x2="660.905" y2="-80.7773" gradientUnits="userSpaceOnUse">
<stop stop-color="#5C88E8"/>
<stop offset="1" stop-color="#DB2F4E"/>
</linearGradient>
<linearGradient id="paint19_linear_1_272" x1="-40.2674" y1="-15.9999" x2="660.905" y2="-80.7773" gradientUnits="userSpaceOnUse">
<stop stop-color="#5C88E8"/>
<stop offset="1" stop-color="#DB2F4E"/>
</linearGradient>
<linearGradient id="paint20_linear_1_272" x1="-40.2674" y1="-15.9999" x2="660.905" y2="-80.7773" gradientUnits="userSpaceOnUse">
<stop stop-color="#5C88E8"/>
<stop offset="1" stop-color="#DB2F4E"/>
</linearGradient>
<linearGradient id="paint21_linear_1_272" x1="-40.2674" y1="-15.9999" x2="660.905" y2="-80.7773" gradientUnits="userSpaceOnUse">
<stop stop-color="#5C88E8"/>
<stop offset="1" stop-color="#DB2F4E"/>
</linearGradient>
<linearGradient id="paint22_linear_1_272" x1="-40.2674" y1="-15.9999" x2="660.905" y2="-80.7773" gradientUnits="userSpaceOnUse">
<stop stop-color="#5C88E8"/>
<stop offset="1" stop-color="#DB2F4E"/>
</linearGradient>
<linearGradient id="paint23_linear_1_272" x1="-40.2674" y1="-15.9999" x2="660.905" y2="-80.7773" gradientUnits="userSpaceOnUse">
<stop stop-color="#5C88E8"/>
<stop offset="1" stop-color="#DB2F4E"/>
</linearGradient>
<linearGradient id="paint24_linear_1_272" x1="-40.2674" y1="-15.9999" x2="660.905" y2="-80.7773" gradientUnits="userSpaceOnUse">
<stop stop-color="#5C88E8"/>
<stop offset="1" stop-color="#DB2F4E"/>
</linearGradient>
<linearGradient id="paint25_linear_1_272" x1="-40.2674" y1="-15.9999" x2="660.905" y2="-80.7773" gradientUnits="userSpaceOnUse">
<stop stop-color="#5C88E8"/>
<stop offset="1" stop-color="#DB2F4E"/>
</linearGradient>
<linearGradient id="paint26_linear_1_272" x1="-40.2674" y1="-15.9999" x2="660.905" y2="-80.7773" gradientUnits="userSpaceOnUse">
<stop stop-color="#5C88E8"/>
<stop offset="1" stop-color="#DB2F4E"/>
</linearGradient>
<linearGradient id="paint27_linear_1_272" x1="-40.2674" y1="-15.9999" x2="660.905" y2="-80.7773" gradientUnits="userSpaceOnUse">
<stop stop-color="#5C88E8"/>
<stop offset="1" stop-color="#DB2F4E"/>
</linearGradient>
<linearGradient id="paint28_linear_1_272" x1="-40.2674" y1="-15.9999" x2="660.905" y2="-80.7773" gradientUnits="userSpaceOnUse">
<stop stop-color="#5C88E8"/>
<stop offset="1" stop-color="#DB2F4E"/>
</linearGradient>
</defs>
</svg>
