<svg width="42" height="42" viewBox="0 0 42 42" fill="none" xmlns="http://www.w3.org/2000/svg">
<path d="M42 21C42 32.598 32.598 42 21 42C9.40202 42 0 32.598 0 21C0 9.40202 9.40202 0 21 0C32.598 0 42 9.40202 42 21Z" fill="#003385"/>
<path d="M42 21C42 32.598 32.598 42 21 42C9.40202 42 0 32.598 0 21C0 9.40202 9.40202 0 21 0C32.598 0 42 9.40202 42 21Z" fill="black"/>
<path d="M23.4589 24.3043H14V21.9536H23.4232C24.2345 21.9536 24.9057 21.819 25.4366 21.5499C25.9676 21.2747 26.3614 20.8979 26.6179 20.4194C26.8744 19.9349 27.0027 19.3786 27.0027 18.7505C27.0027 18.1285 26.8744 17.5722 26.6179 17.0817C26.3614 16.5912 25.9706 16.2054 25.4456 15.9243C24.9206 15.6372 24.2584 15.4937 23.4589 15.4937H19.5572V31.5H16.801V13.125H23.4589C24.849 13.125 26.0094 13.3762 26.9401 13.8787C27.8767 14.3811 28.5777 15.057 29.043 15.9064C29.5143 16.7557 29.75 17.7008 29.75 18.7416C29.75 19.7943 29.5114 20.7424 29.0341 21.5858C28.5628 22.4232 27.8588 23.0871 26.9222 23.5776C25.9915 24.0621 24.8371 24.3043 23.4589 24.3043ZM23.5932 25.8475V28.2072H14V25.8475H23.5932Z" fill="white"/>
</svg>
