<svg width="56" height="55" viewBox="0 0 56 55" fill="none" xmlns="http://www.w3.org/2000/svg">
<path d="M28.3333 0C13.147 0 0.833344 12.3136 0.833344 27.5C0.833344 42.6864 13.147 55 28.3333 55C43.5197 55 55.8333 42.6864 55.8333 27.5C55.8333 12.3136 43.5197 0 28.3333 0ZM41.5493 20.7294C41.5677 21.0179 41.5677 21.3186 41.5677 21.6133C41.5677 30.6244 34.705 41.0045 22.1643 41.0045C18.2971 41.0045 14.7122 39.8811 11.6922 37.9475C12.2446 38.0089 12.7725 38.0335 13.3373 38.0335C16.5292 38.0335 19.4634 36.9531 21.8021 35.1239C18.8066 35.0625 16.2898 33.0982 15.4304 30.3973C16.4801 30.5508 17.4254 30.5508 18.5058 30.2746C16.9634 29.9612 15.577 29.1235 14.5822 27.9038C13.5874 26.6841 13.0456 25.1576 13.0487 23.5837V23.4978C13.9511 24.0073 15.013 24.3203 16.1241 24.3633C15.1901 23.7408 14.4241 22.8975 13.8941 21.9081C13.364 20.9187 13.0863 19.8138 13.0856 18.6914C13.0856 17.4208 13.417 16.2606 14.0125 15.2539C15.7245 17.3614 17.8608 19.0851 20.2826 20.313C22.7044 21.5408 25.3575 22.2453 28.0694 22.3806C27.1057 17.7461 30.5677 13.9955 34.7295 13.9955C36.6938 13.9955 38.4617 14.8181 39.7078 16.144C41.2485 15.8555 42.7217 15.2785 44.0354 14.505C43.5259 16.0826 42.4578 17.4146 41.0398 18.2556C42.4148 18.1083 43.7407 17.7277 44.9684 17.1936C44.0415 18.5564 42.8813 19.7656 41.5493 20.7294Z" fill="#8297A6"/>
</svg>
