<svg width="55" height="55" viewBox="0 0 55 55" fill="none" xmlns="http://www.w3.org/2000/svg">
<path fill-rule="evenodd" clip-rule="evenodd" d="M27.5 0C12.3122 0 0 12.3122 0 27.5C0 42.6878 12.3122 55 27.5 55C42.6878 55 55 42.6878 55 27.5C55 12.3122 42.6878 0 27.5 0ZM16.7435 13.082L20.9036 24H23.9603L28.1204 13.082H25.0052L22.9056 19.3027C22.7819 19.6673 22.681 20.0449 22.6029 20.4355C22.5312 20.8262 22.4857 21.194 22.4661 21.5391H22.388C22.362 21.2201 22.3132 20.8587 22.2415 20.4551C22.1764 20.0514 22.0853 19.6673 21.9681 19.3027L19.8587 13.082H16.7435ZM31.3626 23.6094C32.1243 24 33.0456 24.1953 34.1263 24.1953C34.888 24.1953 35.5163 24.1302 36.0111 24C36.5124 23.8763 36.9909 23.6712 37.4466 23.3848V20.8359C36.9909 21.1354 36.5221 21.3698 36.0404 21.5391C35.5586 21.7018 35.0085 21.7832 34.39 21.7832C33.8952 21.7832 33.4753 21.6693 33.1302 21.4414C32.7852 21.207 32.5215 20.8522 32.3392 20.377C32.1569 19.9017 32.0658 19.3027 32.0658 18.5801C32.0658 17.8444 32.1504 17.2324 32.3197 16.7441C32.4889 16.2559 32.7461 15.8913 33.0911 15.6504C33.4362 15.403 33.8691 15.2793 34.39 15.2793C34.7936 15.2793 35.1973 15.3411 35.6009 15.4648C36.0046 15.582 36.4408 15.735 36.9095 15.9238L37.7884 13.6191C37.3783 13.4173 36.8965 13.2448 36.3431 13.1016C35.7962 12.9518 35.1452 12.877 34.39 12.877C33.3288 12.877 32.3945 13.0755 31.5872 13.4727C30.7865 13.8698 30.1582 14.4915 29.7025 15.3379C29.2533 16.1777 29.0286 17.265 29.0286 18.5996C29.0286 19.8887 29.2272 20.9466 29.6243 21.7734C30.0215 22.6003 30.6009 23.2122 31.3626 23.6094ZM15.2591 37.3145C14.9271 37.5618 14.7611 37.9915 14.7611 38.6035C14.7611 39.1895 14.9271 39.6126 15.2591 39.873C15.5977 40.1335 16.0046 40.2637 16.4798 40.2637C16.9421 40.2637 17.3392 40.1335 17.6712 39.873C18.0098 39.6126 18.179 39.1895 18.179 38.6035C18.179 37.9915 18.0098 37.5618 17.6712 37.3145C17.3392 37.0671 16.9421 36.9434 16.4798 36.9434C16.0046 36.9434 15.5977 37.0671 15.2591 37.3145ZM27.4954 28.9062C27.3001 28.8867 27.1276 28.877 26.9779 28.877C26.4961 28.877 26.0469 28.9714 25.6302 29.1602C25.2201 29.3424 24.8522 29.5898 24.5267 29.9023C24.2077 30.2083 23.9408 30.5469 23.7259 30.918H23.5794L23.14 29.082H20.8841V40H23.8626V34.4434C23.8626 33.929 23.944 33.4961 24.1068 33.1445C24.276 32.7865 24.5039 32.5 24.7904 32.2852C25.0768 32.0638 25.3991 31.9043 25.7572 31.8066C26.1217 31.709 26.4961 31.6602 26.8802 31.6602C27.0104 31.6602 27.1634 31.6699 27.3392 31.6895C27.5215 31.7025 27.6615 31.7253 27.7591 31.7578L27.9837 28.9648C27.86 28.9388 27.6973 28.9193 27.4954 28.9062ZM39.9857 40V29.082H37.0072V34.2188C37.0072 34.9935 36.9355 35.651 36.7923 36.1914C36.6556 36.7253 36.4147 37.1322 36.0697 37.4121C35.7246 37.6855 35.2493 37.8223 34.6439 37.8223C34.0319 37.8223 33.5859 37.6237 33.306 37.2266C33.026 36.8294 32.8861 36.2402 32.8861 35.459V29.082H29.9076V36.2012C29.9076 37.1387 30.0671 37.9004 30.3861 38.4863C30.7116 39.0723 31.1641 39.5052 31.7435 39.7852C32.3229 40.0586 33.0033 40.1953 33.7845 40.1953C34.2402 40.1953 34.6797 40.14 35.1029 40.0293C35.526 39.9186 35.9134 39.7461 36.265 39.5117C36.6165 39.2773 36.9095 38.9746 37.1439 38.6035H37.3001L37.7005 40H39.9857Z" fill="#8297A6"/>
</svg>
