<svg width="56" height="55" viewBox="0 0 56 55" fill="none" xmlns="http://www.w3.org/2000/svg">
<path d="M28.1667 0C12.9787 0 0.666687 12.312 0.666687 27.5C0.666687 42.688 12.9787 55 28.1667 55C43.3547 55 55.6667 42.688 55.6667 27.5C55.6667 12.312 43.3547 0 28.1667 0ZM38.7427 31.0263C38.7427 31.0263 41.1748 33.4268 41.7735 34.5411C41.7906 34.5641 41.7992 34.587 41.805 34.5984C42.0485 35.0081 42.1058 35.326 41.9854 35.5638C41.7849 35.9591 41.0974 36.1539 40.8625 36.1711H36.5656C36.2677 36.1711 35.6432 36.0938 34.887 35.5724C34.3055 35.1656 33.7326 34.4982 33.174 33.8479C32.3404 32.8797 31.6185 32.0432 30.8909 32.0432C30.7985 32.0431 30.7066 32.0576 30.6188 32.0862C30.0688 32.2638 29.3641 33.0487 29.3641 35.1398C29.3641 35.793 28.8485 36.1682 28.4847 36.1682H26.5167C25.8464 36.1682 22.3544 35.9333 19.2607 32.6706C15.4737 28.6745 12.0649 20.6594 12.0362 20.5849C11.8214 20.0664 12.2654 19.7885 12.7495 19.7885H17.0893C17.668 19.7885 17.8571 20.1409 17.9888 20.4531C18.1435 20.8169 18.7107 22.2635 19.6417 23.8906C21.1513 26.5432 22.0766 27.6203 22.8185 27.6203C22.9576 27.6187 23.0943 27.5833 23.2167 27.5172C24.1849 26.9786 24.0044 23.5268 23.9615 22.8107C23.9615 22.676 23.9586 21.2667 23.463 20.5906C23.1078 20.1008 22.5034 19.9146 22.1367 19.8458C22.2851 19.641 22.4807 19.475 22.7068 19.3617C23.3714 19.0294 24.5688 18.9807 25.7576 18.9807H26.4193C27.7084 18.9979 28.0406 19.081 28.5076 19.1984C29.4529 19.4247 29.4729 20.0349 29.3899 22.1232C29.3641 22.7161 29.3383 23.3865 29.3383 24.1771C29.3383 24.349 29.3297 24.5323 29.3297 24.7271C29.3011 25.7898 29.2667 26.9958 30.0172 27.4914C30.1151 27.5528 30.2282 27.5855 30.3438 27.5859C30.6044 27.5859 31.3893 27.5859 33.5149 23.9393C34.1704 22.7656 34.74 21.5459 35.2193 20.2898C35.2623 20.2154 35.3883 19.9862 35.5373 19.8974C35.6472 19.8414 35.7691 19.8128 35.8925 19.8143H40.9943C41.55 19.8143 41.931 19.8974 42.0026 20.1122C42.1287 20.4531 41.9797 21.493 39.6508 24.6469L38.611 26.019C36.4998 28.7862 36.4998 28.9266 38.7427 31.0263Z" fill="#8297A6"/>
</svg>
